<?xml version="1.0" encoding="utf-8" ?>
<svg xmlns="http://www.w3.org/2000/svg" xmlns:xlink="http://www.w3.org/1999/xlink" width="512" height="512">
	<path fill="#9BDAE7" transform="scale(0.666667 0.666667)" d="M415.528 80.2686L432.029 80.0758L432.015 95.9949L416.081 96.0082L415.948 84.9375C415.928 83.5087 416.172 81.5302 415.528 80.2686Z"/>
	<path fill="#B0E1ED" transform="scale(0.666667 0.666667)" d="M320.262 96.0249L320.08 80.2995L342.286 79.9837L341.625 80.306L336.134 80.3233L335.994 91.6933C335.997 92.9428 335.754 94.9009 336.338 95.9947L335.92 96.0534L320.262 96.0249Z"/>
	<path fill="#9BDAE7" transform="scale(0.666667 0.666667)" d="M351.815 159.802L352.129 159.869L352.13 160.061L351.998 191.992L335.984 192.022L336.223 160.022C341.272 160.028 346.837 160.486 351.815 159.802Z"/>
	<path fill="#D4E9EF" transform="scale(0.666667 0.666667)" d="M352.13 160.061L367.66 160.023L367.956 181.959L367.931 191.972L351.998 191.992L352.13 160.061Z"/>
	<path fill="#003349" transform="scale(0.666667 0.666667)" d="M432.018 191.981L463.836 192.204L463.847 207.796C458.722 208.368 453.21 207.996 448.037 207.996L432.028 208.041L432.018 191.981Z"/>
	<path fill="#003349" transform="scale(0.666667 0.666667)" d="M304.072 207.865L304.104 192.108L335.984 192.022L335.99 203.145C335.988 204.552 336.246 206.573 335.686 207.855L304.1 208.051L304.072 207.865Z"/>
	<path fill="#FBFDFC" fill-opacity="0.98823529" transform="scale(0.666667 0.666667)" d="M342.286 79.9837L367.519 80.3462C368.501 81.9285 368.005 93.5677 367.991 96.0098L352.089 96.0088L336.338 95.9947C335.754 94.9009 335.997 92.9428 335.994 91.6933L336.134 80.3233L341.625 80.306L342.286 79.9837Z"/>
	<path fill="#B0E1ED" transform="scale(0.666667 0.666667)" d="M367.519 80.3462L415.528 80.2686C416.172 81.5302 415.928 83.5087 415.948 84.9375L416.081 96.0082L399.977 96.0008L399.974 111.721L352.047 111.732L352.089 96.0088L367.991 96.0098C368.005 93.5677 368.501 81.9285 367.519 80.3462Z"/>
	<path fill="#003D52" transform="scale(0.666667 0.666667)" d="M447.454 688.2C452.759 688.401 458.499 688.766 463.758 688.082L463.508 703.657L304.515 703.599C304.502 698.662 304.773 693.487 304.038 688.604L346.3 688.183L351.386 688.166L367.967 688.218L447.454 688.2Z"/>
	<path fill="#003349" transform="scale(0.666667 0.666667)" d="M432.029 80.0758C437.207 79.9852 442.77 79.6262 447.901 80.2751L448.055 143.93L432.002 143.999L431.986 127.998L370.688 127.95L345.3 127.819C342.872 127.821 339.457 127.38 337.125 127.85C336.61 127.954 336.503 128.049 336.103 128.279L335.992 144.007L320.096 143.93L320.262 96.0249L335.92 96.0534L336.338 95.9947L352.089 96.0088L352.047 111.732L399.974 111.721L399.977 96.0008L416.081 96.0082L432.015 95.9949L432.029 80.0758Z"/>
	<path fill="#61C5D9" transform="scale(0.666667 0.666667)" d="M335.92 96.0534L336.338 95.9947L352.089 96.0088L352.047 111.732L399.974 111.721L400 112.045L335.992 112.066L335.92 96.0534Z"/>
	<path fill="#4BB7CF" transform="scale(0.666667 0.666667)" d="M416.081 96.0082L432.015 95.9949L432.027 112.048L400 112.045L399.974 111.721L399.977 96.0008L416.081 96.0082Z"/>
	<path fill="#003D52" transform="scale(0.666667 0.666667)" d="M304.072 207.865L304.1 208.051L304.008 368.164L303.986 399.947L303.76 416.34L303.958 441.368L303.976 483.854L303.787 620.881L303.717 667.57L303.699 680.971C303.696 683.251 303.465 685.821 303.771 688.061L303.284 687.984C298.35 687.155 293.415 688.05 288.475 687.454L288.243 208.259L304.072 207.865Z"/>
	<path fill="#003D52" transform="scale(0.666667 0.666667)" d="M464.212 207.953L464.718 208.006L479.91 208.075L479.71 546.004L479.71 645.926L479.723 674.829C479.729 679.092 480.251 683.709 479.705 687.914C474.612 687.786 469.191 687.295 464.12 687.725L464.212 207.953Z"/>
	<path fill="#FBFDFC" transform="scale(0.666667 0.666667)" d="M351.998 191.992L367.931 191.972L367.812 328.183L367.784 365.886C367.755 370.825 366.923 376.032 367.555 381.008L367.554 383.979L352.132 383.587L352.106 367.983L320.723 367.997L320.406 368.089L304.008 368.164L304.1 208.051L335.686 207.855C336.246 206.573 335.988 204.552 335.99 203.145L335.984 192.022L351.998 191.992Z"/>
	<path fill="#B0E1ED" transform="scale(0.666667 0.666667)" d="M335.686 207.855L335.249 208.042C334.075 208.504 332.014 208.257 330.73 208.261L319.907 208.251L320.018 331.537L320.02 360.378C320.028 361.964 319.566 365.92 320.082 367.303C320.192 367.598 320.509 367.766 320.723 367.997L320.406 368.089L304.008 368.164L304.1 208.051L335.686 207.855Z"/>
	<path fill="#9BDAE7" transform="scale(0.666667 0.666667)" d="M320.723 367.997L352.106 367.983L352.132 383.587L367.554 383.979L367.556 387.742L367.774 416.113L352.006 416.215L351.824 624.441L367.867 624.394L367.863 671.941C367.927 673.391 367.898 674.9 368.18 676.324L367.967 688.218L351.386 688.166L346.3 688.183L304.038 688.604L303.771 688.061C303.465 685.821 303.696 683.251 303.699 680.971L303.717 667.57L303.787 620.881L303.976 483.854L303.958 441.368L303.76 416.34L303.986 399.947L304.008 368.164L320.406 368.089L320.723 367.997Z"/>
	<path fill="#61C5D9" transform="scale(0.666667 0.666667)" d="M367.863 671.941C367.927 673.391 367.898 674.9 368.18 676.324L367.967 688.218L351.386 688.166C352.864 685.441 351.987 675.505 351.965 671.916L367.863 671.941Z"/>
	<path fill="#D4E9EF" transform="scale(0.666667 0.666667)" d="M352.132 383.587L367.554 383.979L367.556 387.742L367.525 388.244L367.469 415.809L351.76 415.879L352.047 400.551C350.74 400.11 348.657 400.393 347.219 400.397C343.272 400.41 339.293 400.527 335.356 400.223L334.754 400.174C340.334 399.565 346.468 400.068 352.109 400.07L352.132 383.587Z"/>
	<path fill="#FBFDFC" transform="scale(0.666667 0.666667)" d="M303.986 399.947L319.945 400.054L320.157 400.161L334.754 400.174L335.356 400.223C339.293 400.527 343.272 400.41 347.219 400.397C348.657 400.393 350.74 400.11 352.047 400.551L351.76 415.879C349.635 416.896 344.696 416.311 342.209 416.314L319.584 416.267L303.76 416.34L303.986 399.947Z"/>
	<path fill="#B0E1ED" transform="scale(0.666667 0.666667)" d="M303.986 399.947L319.945 400.054L320.157 400.161C319.342 405.092 319.893 410.892 319.896 415.928L351.76 415.879C349.635 416.896 344.696 416.311 342.209 416.314L319.584 416.267L303.76 416.34L303.986 399.947Z"/>
	<path fill="#9BDAE7" transform="scale(0.666667 0.666667)" d="M320.723 367.997L352.106 367.983L352.132 383.587L352.109 400.07C346.468 400.068 340.334 399.565 334.754 400.174L320.157 400.161L319.945 400.054L303.986 399.947L304.008 368.164L320.406 368.089L320.723 367.997Z"/>
	<path fill="#61C5D9" transform="scale(0.666667 0.666667)" d="M304.008 368.164L320.406 368.089C318.891 378.458 320.545 389.577 319.945 400.054L303.986 399.947L304.008 368.164Z"/>
	<path fill="#61C5D9" transform="scale(0.666667 0.666667)" d="M303.76 416.34L319.584 416.267L320.354 687.127C326.22 688.038 331.598 688.023 337.527 688.021C340.381 688.021 343.481 687.776 346.3 688.183L304.038 688.604L303.771 688.061C303.465 685.821 303.696 683.251 303.699 680.971L303.717 667.57L303.787 620.881L303.976 483.854L303.958 441.368L303.76 416.34Z"/>
	<path fill="#4BB7CF" transform="scale(0.666667 0.666667)" d="M336.103 128.279C336.503 128.049 336.61 127.954 337.125 127.85C339.457 127.38 342.872 127.821 345.3 127.819L370.688 127.95L431.986 127.998L432.002 143.999L432.018 191.981L432.028 208.041L448.037 207.996L448.113 224.29L447.98 351.619L428.25 351.963C424.098 351.263 419.716 352.278 415.594 351.679C412.241 351.193 407.943 351.728 404.482 351.715C403.122 351.71 401.355 351.397 400.197 352.169L400.109 366.84C398.618 368.152 394.527 367.507 392.437 367.818L377.407 367.811C374.159 367.797 371.062 367.555 367.821 367.955C367.781 372.049 368.255 377.027 367.555 381.008C366.923 376.032 367.755 370.825 367.784 365.886L367.812 328.183L367.931 191.972L367.956 181.959L367.66 160.023L352.13 160.061L352.129 159.869L351.815 159.802C346.837 160.486 341.272 160.028 336.223 160.022L335.992 144.007L336.103 128.279Z"/>
	<path fill="#003349" transform="scale(0.666667 0.666667)" d="M335.992 144.007L351.906 144C351.904 149.098 352.423 154.777 351.815 159.802C346.837 160.486 341.272 160.028 336.223 160.022L335.992 144.007Z"/>
	<path fill="#B0E1ED" transform="scale(0.666667 0.666667)" d="M352.129 159.869L352.176 144.006L368.032 144.001L367.947 158.695L367.66 160.023L352.13 160.061L352.129 159.869Z"/>
	<path fill="#0287A1" transform="scale(0.666667 0.666667)" d="M336.103 128.279C336.503 128.049 336.61 127.954 337.125 127.85C339.457 127.38 342.872 127.821 345.3 127.819L370.688 127.95L431.986 127.998L432.002 143.999L432.018 191.981L421.804 192.018C419.962 192.019 417.931 192.223 416.162 191.686C415.63 190.448 415.821 188.965 415.821 187.639L415.817 179.234L415.823 144.031L368.01 143.981L367.991 128.167L336.103 128.279Z"/>
	<path fill="#003349" transform="scale(0.666667 0.666667)" d="M416.162 191.686L416.134 144.011L432.002 143.999L432.018 191.981L421.804 192.018C419.962 192.019 417.931 192.223 416.162 191.686Z"/>
	<path fill="#9BDAE7" transform="scale(0.666667 0.666667)" d="M367.947 158.695L368.055 159.37C368.825 164.588 368.187 170.771 368.178 176.094L400.026 175.942L400.048 249.75L400.478 258.75L400.531 305.138L400.53 336.038C400.535 341.245 401.128 347.037 400.197 352.169L400.109 366.84C398.618 368.152 394.527 367.507 392.437 367.818L377.407 367.811C374.159 367.797 371.062 367.555 367.821 367.955C367.781 372.049 368.255 377.027 367.555 381.008C366.923 376.032 367.755 370.825 367.784 365.886L367.812 328.183L367.931 191.972L367.956 181.959L367.66 160.023L367.947 158.695Z"/>
	<path fill="#B0E1ED" transform="scale(0.666667 0.666667)" d="M367.956 181.959C368.635 183.496 368.304 186.117 368.312 187.817L368.35 200.959L368.173 267.169L368.2 322.491L368.066 352.062L399.594 352.101C399.944 353.321 399.724 354.848 399.699 356.131L399.664 363.511C399.678 364.632 399.516 365.851 400.109 366.84C398.618 368.152 394.527 367.507 392.437 367.818L377.407 367.811C374.159 367.797 371.062 367.555 367.821 367.955C367.781 372.049 368.255 377.027 367.555 381.008C366.923 376.032 367.755 370.825 367.784 365.886L367.812 328.183L367.931 191.972L367.956 181.959Z"/>
	<path fill="#47C1D7" transform="scale(0.666667 0.666667)" d="M463.847 207.796L464.212 207.953L464.12 687.725L463.758 688.082C458.499 688.766 452.759 688.401 447.454 688.2L367.967 688.218L368.18 676.324C367.898 674.9 367.927 673.391 367.863 671.941L367.867 624.394L351.824 624.441L352.006 416.215L367.774 416.113L367.556 387.742L367.554 383.979L367.555 381.008C368.255 377.027 367.781 372.049 367.821 367.955C371.062 367.555 374.159 367.797 377.407 367.811L392.437 367.818C394.527 367.507 398.618 368.152 400.109 366.84L400.197 352.169C401.355 351.397 403.122 351.71 404.482 351.715C407.943 351.728 412.241 351.193 415.594 351.679C419.716 352.278 424.098 351.263 428.25 351.963L447.98 351.619L448.113 224.29L448.037 207.996C453.21 207.996 458.722 208.368 463.847 207.796Z"/>
	<path fill="#39B7CD" transform="scale(0.666667 0.666667)" d="M400.197 352.169C401.355 351.397 403.122 351.71 404.482 351.715C407.943 351.728 412.241 351.193 415.594 351.679C419.716 352.278 424.098 351.263 428.25 351.963L415.846 351.985L415.773 366.75C415.439 366.996 415.126 367.235 414.763 367.436L404.517 367.449C402.901 367.45 401.501 367.735 400.109 366.84L400.197 352.169Z"/>
	<path fill="#61C5D9" transform="scale(0.666667 0.666667)" d="M448.464 368.291C447.309 366.273 448.041 355.134 448.052 352.035C453.143 352.041 458.923 351.531 463.912 352.396L463.892 368.254L448.464 368.291Z"/>
	<path fill="#39B7CD" transform="scale(0.666667 0.666667)" d="M431.989 399.771L431.89 384.014L447.716 384.018L447.686 372.959C447.688 371.833 447.468 370.019 447.925 369.008L448.137 368.577L448.137 400.11C446.807 399.601 444.946 399.746 443.535 399.717L431.989 399.771Z"/>
	<path fill="#61C5D9" transform="scale(0.666667 0.666667)" d="M400.109 366.84C401.501 367.735 402.901 367.45 404.517 367.449L414.763 367.436L415.813 367.875L415.925 400.018L400.349 400.073C399.627 397.517 400.035 393.7 400.027 391.009L400.167 367.824C397.644 367.886 394.934 368.146 392.437 367.818C394.527 367.507 398.618 368.152 400.109 366.84Z"/>
	<path fill="#39B7CD" transform="scale(0.666667 0.666667)" d="M368.18 676.324C368.217 675.251 367.981 672.582 368.625 671.841L400.029 671.859L399.927 687.701L447.528 687.667L447.454 688.2L367.967 688.218L368.18 676.324Z"/>
	<path fill="#61C5D9" transform="scale(0.666667 0.666667)" d="M367.867 624.394L351.824 624.441L352.006 416.215L367.774 416.113L368.001 463.931L383.975 463.896L384.009 479.993L367.863 479.951L367.867 624.394Z"/>
	<path fill="#61C5D9" transform="scale(0.666667 0.666667)" d="M400.173 416.271L415.94 416.133L415.903 672.026L400.62 672.208L400.217 672.241L400.173 416.271Z"/>
	<path fill="#0287A1" transform="scale(0.666667 0.666667)" d="M463.847 207.796L464.212 207.953L464.12 687.725L463.758 688.082C458.499 688.766 452.759 688.401 447.454 688.2L447.528 687.667C447.872 685.909 447.676 683.815 447.684 682.014L447.717 672.057L432.046 672.199L432.064 656.269L447.689 656.13L447.613 624.078L431.892 624.131L431.9 512.197L431.72 497.548C431.211 496.133 431.218 494.439 431.094 492.936C430.765 488.936 430.754 484.95 430.753 480.939C430.752 476.487 430.497 471.844 431.062 467.441C431.22 466.217 430.964 464.908 431.14 463.688C431.856 458.717 432.265 452.944 431.749 447.937L431.069 436.875C430.718 433.856 430.668 430.694 430.932 427.661L431.579 420.057C431.703 418.625 431.629 417.253 432.316 415.954C431.676 414.615 431.969 412.722 431.973 411.237L431.989 399.771L443.535 399.717C444.946 399.746 446.807 399.601 448.137 400.11L448.137 368.577L448.464 368.291L463.892 368.254L463.912 352.396L463.892 224.325C458.705 223.976 453.349 224.303 448.113 224.29L448.037 207.996C453.21 207.996 458.722 208.368 463.847 207.796Z"/>
	<path fill="#61C5D9" transform="scale(0.666667 0.666667)" d="M463.847 207.796L463.892 224.325C458.705 223.976 453.349 224.303 448.113 224.29L448.037 207.996C453.21 207.996 458.722 208.368 463.847 207.796Z"/>
	<path fill="#39B7CD" transform="scale(0.666667 0.666667)" d="M431.9 512.197L448.074 511.943L448.119 607.857L448.136 654.188C448.11 654.909 448.141 655.547 447.689 656.13L447.613 624.078L431.892 624.131L431.9 512.197Z"/>
	<path fill="#39B7CD" transform="scale(0.666667 0.666667)" d="M431.989 399.771L443.535 399.717C444.946 399.746 446.807 399.601 448.137 400.11L463.852 400.066L463.869 416.104L448.072 415.838L448.026 496.02C445.301 496.025 433.448 495.424 431.921 496.5L431.72 497.548C431.211 496.133 431.218 494.439 431.094 492.936C430.765 488.936 430.754 484.95 430.753 480.939C430.752 476.487 430.497 471.844 431.062 467.441C431.22 466.217 430.964 464.908 431.14 463.688C431.856 458.717 432.265 452.944 431.749 447.937L431.069 436.875C430.718 433.856 430.668 430.694 430.932 427.661L431.579 420.057C431.703 418.625 431.629 417.253 432.316 415.954C431.676 414.615 431.969 412.722 431.973 411.237L431.989 399.771Z"/>
	<path fill="#61C5D9" transform="scale(0.666667 0.666667)" d="M431.989 399.771L443.535 399.717C444.946 399.746 446.807 399.601 448.137 400.11L447.98 415.807L432.316 415.954C431.676 414.615 431.969 412.722 431.973 411.237L431.989 399.771Z"/>
</svg>
