<?xml version="1.0" encoding="utf-8"?>
<!-- Generator: Adobe Illustrator 27.7.0, SVG Export Plug-In . SVG Version: 6.00 Build 0)  -->
<svg version="1.1" id="Layer_1" xmlns="http://www.w3.org/2000/svg" xmlns:xlink="http://www.w3.org/1999/xlink" x="0px" y="0px"
	 viewBox="0 0 501.1 428.3" style="enable-background:new 0 0 501.1 428.3;" xml:space="preserve">
<style type="text/css">
	.st0{fill:#EDB17A;}
	.st1{fill:#CF6D40;}
	.st2{fill:#301F29;}
	.st3{fill:#080719;}
	.st4{fill:#010822;}
	.st5{fill:#51281E;}
	.st6{fill:#09081A;}
	.st7{fill:#081321;}
	.st8{fill:#08061B;}
	.st9{fill:#89452B;}
	.st10{opacity:0.66;fill:#CF6D40;}
	.st11{fill:#35424B;}
	.st12{fill:#353535;}
	.st13{fill:#4E585E;}
	.st14{fill:#0F071F;}
	.st15{fill:#383838;}
	.st16{fill:#D69865;}
	.st17{fill:#697E9E;}
	.st18{fill:#4B668C;}
	.st19{fill:#243A54;}
	.st20{fill:#5A6F8E;}
	.st21{fill:#CC8656;}
	.st22{fill:#A05A2A;}
	.st23{fill:none;stroke:#FFFFFF;stroke-width:2.9131;stroke-miterlimit:10;}
	.st24{fill:none;stroke:#FFFFFF;stroke-width:2.9638;stroke-miterlimit:10;}
	.st25{fill:#00090C;}
	.st26{fill:#2D2D2D;}
	.st27{fill:#FFFFFF;}
	.st28{fill:#000600;}
	.st29{fill:#171717;}
	.st30{fill:#4B4B4B;}
	.st31{fill:#F7FBFA;}
	.st32{fill:#DAD6D7;}
	.st33{fill:#3E3E3E;}
	.st34{fill:#B0B1AB;}
	.st35{fill:#989898;}
	.st36{fill:#5B5B5B;}
	.st37{fill:#9D9D9D;}
	.st38{fill:#4F4F4F;}
</style>
<g>
	<path class="st25" d="M66.7,208.7v-30h27.8c0.2-4.1,0.4-8.1,0.7-12.2c38.4,0.4,76.8,0.7,115.3,1.1c0,9.1,0,18.3,0,27.4
		c13-0.1,26.1-0.2,39.1-0.3v-26h116.6c8.8-0.2,17.7-0.3,26.5-0.5c0,11.1,0,22.1,0,33.2h41v20.1H392v39.8h-20.3v-78.9h-105v69h-16.6
		v-41.7h-40.4v43.8h-18.5v-70.1h-83.5v77.8H90.6v-51.5L66.7,208.7z"/>
	<rect x="107.1" y="182.9" class="st27" width="83.5" height="70.1"/>
	<rect x="266.1" y="182.9" class="st27" width="106" height="70.1"/>
</g>
</svg>
