<?xml version="1.0" encoding="utf-8"?>
<!-- Generator: Adobe Illustrator 27.7.0, SVG Export Plug-In . SVG Version: 6.00 Build 0)  -->
<svg version="1.1" id="Layer_1" xmlns="http://www.w3.org/2000/svg" xmlns:xlink="http://www.w3.org/1999/xlink" x="0px" y="0px"
	 viewBox="0 0 704.1 1080.3" style="enable-background:new 0 0 704.1 1080.3;" xml:space="preserve">
<style type="text/css">
	.st0{fill:#00090C;}
	.st1{fill:#FFFFFF;}
	.st2{fill:#000600;}
	.st3{fill:#EDB17A;}
	.st4{fill:#CF6D40;}
	.st5{fill:#301F29;}
	.st6{fill:#080719;}
	.st7{fill:#010822;}
	.st8{fill:#51281E;}
	.st9{fill:#09081A;}
	.st10{fill:#081321;}
	.st11{fill:#08061B;}
	.st12{fill:#89452B;}
	.st13{opacity:0.66;fill:#CF6D40;}
	.st14{fill:#35424B;}
	.st15{fill:#353535;}
	.st16{fill:#4E585E;}
	.st17{fill:#0F071F;}
	.st18{fill:#383838;}
	.st19{fill:#D69865;}
	.st20{fill:#697E9E;}
	.st21{fill:#4B668C;}
	.st22{fill:#243A54;}
	.st23{fill:#5A6F8E;}
	.st24{fill:#CC8656;}
	.st25{fill:#A05A2A;}
	.st26{fill:none;stroke:#FFFFFF;stroke-width:2.9131;stroke-miterlimit:10;}
	.st27{fill:none;stroke:#FFFFFF;stroke-width:2.9638;stroke-miterlimit:10;}
	.st28{fill:#2D2D2D;}
	.st29{fill:#171717;}
	.st30{fill:#4B4B4B;}
	.st31{fill:#F7FBFA;}
	.st32{fill:#DAD6D7;}
	.st33{fill:#3E3E3E;}
	.st34{fill:#B0B1AB;}
	.st35{fill:#989898;}
	.st36{fill:#5B5B5B;}
	.st37{fill:#9D9D9D;}
	.st38{fill:#4F4F4F;}
</style>
<g>
	<rect x="205.5" y="249.5" class="st3" width="270.3" height="160.3"/>
	<path class="st4" d="M408.8,260.8c0,38,0,76,0,113.9c-7.5,0-15,0-22.5,0c0,3.5,0,7.1,0,10.6c25.6,0.9,51.2,1.8,76.8,2.6
		c0.9-43.7,1.8-87.4,2.6-131.2C446.8,258.1,427.8,259.4,408.8,260.8z"/>
	<path class="st3" d="M471,432.2c0-7.4,0-14.9,0-22.3H190.9c-0.4,20.8-0.9,41.7-1.3,62.5c-3.9,4.3-7.9,8.7-11.8,13
		c-0.4,11-0.8,22.3-0.8,33.8c0,9.3,0,18.5,0,27.8c-3.5,0-7-0.1-10.5-0.1c0,12.6,0,25.2,0,37.9c1.7,0.8,4.3,2.1,7.2,4
		c11.1,7.1,14.9,15.9,19.2,19.2c12.7,9.8,30.8,5.3,43.7,2.6c70.7-14.2,113.6,19.6,142.4-7.3c4.3-4,9.1-10.1,19.2-15.2
		c16.8-8.5,25.5-2.8,36.4-9.9c10.9-7.2,7.7-16.8,18.5-38.4c10.4-20.7,23.5-34,31.8-42.4c25.7-26,44.2-28.7,43.7-38.4
		C528.4,452,518.7,442.3,471,432.2z"/>
	<path class="st4" d="M166.4,584.7c0,7.8,0,15.5,0,23.3c8.8,0,17.6-0.1,26.4-0.1c-0.1,3.4-0.2,6.9-0.2,10.3
		c70.4-0.5,140.8-1,211.2-1.5c-0.1-6.9-0.2-13.9-0.3-20.8c18.5-0.4,37.1-0.9,55.6-1.3c0-7.1,0-14.1,0-21.2
		c9.7-0.4,19.4-0.9,29.1-1.3c0.7-18.9,1.3-37.8,2-56.7c24.1-0.1,48.1-0.2,72.2-0.2c0.4-34.9,0.9-69.8,1.3-104.7
		c-30.9-0.4-61.8-0.9-92.7-1.3c0,28.5-0.1,57-0.1,85.5c-18.5,26.7-37,53.4-55.6,80.2c-11.5,0.9-23,1.8-34.4,2.6
		c0.4,6.6,0.9,13.2,1.3,19.9c-63.2,0-126.3,0-189.5,0c-0.1-4.2-0.2-8.4-0.2-12.6C183.9,584.7,175.2,584.7,166.4,584.7z"/>
	<rect x="290.9" y="484.7" class="st4" width="38.4" height="15.9"/>
	<rect x="198.2" y="478" class="st4" width="64.9" height="10.6"/>
	<rect x="181" y="516.5" class="st4" width="15.9" height="30.5"/>
	<rect x="206.1" y="223.7" class="st5" width="250.4" height="72.9"/>
	<rect x="177" y="207.8" class="st6" width="242.5" height="15.9"/>
	<rect x="177" y="223.7" class="st7" width="29.1" height="58.3"/>
	<rect x="184.9" y="189.2" class="st8" width="206.7" height="18.5"/>
	<rect x="272.4" y="166.7" class="st5" width="91.4" height="22.5"/>
	<rect x="206.1" y="296.5" class="st9" width="34.4" height="23.8"/>
	<rect x="455.9" y="250.8" class="st10" width="122.8" height="52.3"/>
	<rect x="461.6" y="282" class="st11" width="114.3" height="140.4"/>
	<rect x="432.7" y="296.5" class="st9" width="29.1" height="29.1"/>
	<rect x="554.2" y="292.6" class="st6" width="40.1" height="33.1"/>
	<path class="st4" d="M459.2,493.9c-33.8,0.2-67.6,0.4-101.4,0.7V484c27.3,0,54.5,0,81.8,0c0.3-5.5,0.7-11,1-16.6h18.5l0,0l0,0
		C459.2,476.3,459.2,485.1,459.2,493.9z"/>
	<rect x="506.9" y="452.9" class="st3" width="39.7" height="39.7"/>
	<polygon class="st12" points="546.6,452.3 546.6,464.1 516.7,464.1 516.7,487 506.9,487 506.9,452.3 	"/>
	<rect x="449.9" y="397.1" class="st13" width="9.3" height="70.1"/>
	<rect x="260.1" y="617.5" class="st14" width="142.7" height="123.1"/>
	<rect x="297.5" y="616.8" class="st3" width="35.5" height="14.6"/>
	<rect x="402.6" y="652.5" class="st15" width="46.4" height="48.1"/>
	<rect x="225.4" y="645.2" class="st16" width="34.7" height="43.7"/>
	<rect x="399.9" y="617.5" class="st17" width="25.5" height="35"/>
	<rect x="425.4" y="635" class="st17" width="18.2" height="17.5"/>
	<rect x="238.1" y="624.8" class="st18" width="22" height="21.8"/>
	<rect x="230" y="688.9" class="st19" width="30" height="58.3"/>
	<rect x="260.1" y="740.6" class="st20" width="31.6" height="120.2"/>
	<rect x="349.1" y="740.6" class="st21" width="50.9" height="120.2"/>
	<rect x="226.6" y="856.4" class="st22" width="82.1" height="16.8"/>
	<rect x="337.5" y="858.9" class="st22" width="86.7" height="14.2"/>
	<rect x="226.6" y="872.4" class="st17" width="82.1" height="16.8"/>
	<rect x="337.5" y="873.5" class="st17" width="86.7" height="14.2"/>
	<rect x="290.7" y="740.6" class="st23" width="59.5" height="52.4"/>
	<rect x="241" y="779.2" class="st23" width="21.5" height="21.1"/>
	<rect x="227.7" y="747.1" class="st24" width="32.4" height="40.8"/>
	<rect x="244.5" y="864.4" class="st17" width="13.9" height="8.7"/>
	<rect x="350.8" y="864.4" class="st17" width="13.9" height="10.2"/>
	<rect x="399.4" y="741.3" class="st23" width="22.3" height="61.9"/>
	<rect x="402.6" y="753" class="st24" width="44.6" height="40.8"/>
	<rect x="402.6" y="700.5" class="st19" width="40.9" height="52.4"/>
	<rect x="429.5" y="699.8" class="st4" width="14.3" height="52.4"/>
	<rect x="269.8" y="650.3" class="st15" width="7.3" height="72.8"/>
	<rect x="433.4" y="753.7" class="st25" width="14.3" height="39.3"/>
	<line class="st26" x1="226.2" y1="880.4" x2="309.2" y2="880.4"/>
	<line class="st27" x1="335.4" y1="880.4" x2="424.2" y2="880.4"/>
	<rect x="402.4" y="740.6" class="st0" width="43.7" height="11.7"/>
	<rect x="411.1" y="731.8" class="st28" width="27.7" height="27.7"/>
</g>
</svg>
