<?xml version="1.0" encoding="utf-8"?>
<!-- Generator: Adobe Illustrator 27.7.0, SVG Export Plug-In . SVG Version: 6.00 Build 0)  -->
<svg version="1.1" id="Layer_1" xmlns="http://www.w3.org/2000/svg" xmlns:xlink="http://www.w3.org/1999/xlink" x="0px" y="0px"
	 viewBox="0 0 501.1 428.3" style="enable-background:new 0 0 501.1 428.3;" xml:space="preserve">
<style type="text/css">
	.st0{fill:#353535;}
	.st1{fill:#606060;}
	.st2{fill:#3A3A3A;}
	.st3{fill:#C6C6C6;}
	.st4{fill:#282727;}
	.st5{fill:#444446;}
	.st6{fill:#5D686C;}
	.st7{fill:#FFFFFF;}
	.st8{fill:#7692B9;}
	.st9{fill:#C9412B;}
	.st10{fill:#BF5653;}
	.st11{fill:#805988;}
	.st12{fill:#8A7D97;}
	.st13{fill:#3A3839;}
	.st14{fill:#5B6AA1;}
	.st15{fill:#BC618D;}
	.st16{fill:#79C0D2;}
	.st17{fill:#B69F1F;}
	.st18{fill:#2B8770;}
</style>
<g>
	
		<rect x="403.8" y="266.1" transform="matrix(-1 -4.490420e-11 4.490420e-11 -1 887.1161 560.1265)" class="st0" width="79.6" height="27.8"/>
	
		<rect x="403.8" y="288" transform="matrix(-1 -4.487800e-11 4.487800e-11 -1 863.2487 601.8945)" class="st0" width="55.7" height="25.9"/>
	
		<rect x="383.9" y="307.9" transform="matrix(-1 -4.484558e-11 4.484558e-11 -1 823.4696 641.6736)" class="st0" width="55.7" height="25.9"/>
	<rect x="17.9" y="93.1" class="st4" width="389.8" height="232.7"/>
	
		<rect x="33.8" y="325.8" transform="matrix(-1 -4.489621e-11 4.489621e-11 -1 437.6124 669.5189)" class="st2" width="369.9" height="17.9"/>
	<rect x="57.7" y="148.8" class="st5" width="37.8" height="27.8"/>
	<rect x="157.1" y="117" class="st6" width="61.7" height="45.7"/>
	<rect x="288.4" y="111" class="st0" width="57.7" height="43.8"/>
	<rect x="346.1" y="115" class="st6" width="35.8" height="35.8"/>
	<rect x="377.9" y="122.9" class="st0" width="11.9" height="19.9"/>
	<rect x="121.3" y="154.8" class="st7" width="13.9" height="13.9"/>
	<rect x="163.1" y="284" class="st7" width="13.9" height="13.9"/>
	<rect x="177" y="266.1" class="st7" width="13.9" height="13.9"/>
	<rect x="264.6" y="276.1" class="st8" width="27.8" height="27.8"/>
	<rect x="204.9" y="284" class="st7" width="13.9" height="13.9"/>
	<rect x="224.8" y="272.1" class="st7" width="13.9" height="13.9"/>
	<rect x="286.4" y="220.4" class="st7" width="13.9" height="13.9"/>
	<rect x="298.4" y="232.3" class="st7" width="13.9" height="13.9"/>
	<rect x="310.3" y="242.3" class="st7" width="13.9" height="13.9"/>
	<rect x="163.1" y="140.8" class="st7" width="13.9" height="13.9"/>
	<rect x="189" y="126.9" class="st7" width="13.9" height="13.9"/>
	<rect x="113.4" y="140.8" class="st7" width="13.9" height="13.9"/>
	<rect x="105.4" y="126.9" class="st7" width="13.9" height="13.9"/>
	<rect x="95.5" y="186.6" class="st9" width="31.8" height="39.8"/>
	<rect x="244.7" y="240.3" class="st10" width="27.8" height="27.8"/>
	<rect x="344.1" y="184.6" class="st11" width="37.8" height="39.8"/>
	<rect x="352.1" y="236.3" class="st12" width="37.8" height="39.8"/>
	<rect x="306.3" y="274.1" class="st12" width="83.5" height="39.8"/>
	<rect x="278.5" y="176.6" class="st13" width="31.8" height="31.8"/>
	<rect x="85.5" y="192.5" class="st9" width="9.9" height="23.9"/>
	<rect x="123.3" y="192.5" class="st9" width="9.9" height="23.9"/>
	<rect x="164.9" y="187.1" class="st7" width="43.8" height="54.7"/>
	<rect x="151.2" y="195.3" class="st7" width="13.7" height="32.8"/>
	<rect x="203.1" y="195.3" class="st7" width="13.7" height="32.8"/>
	<rect x="45.8" y="254.2" class="st14" width="59.7" height="49.7"/>
	<rect x="105.4" y="254.2" class="st14" width="27.8" height="35.8"/>
	<rect x="133.3" y="254.2" class="st14" width="19.9" height="25.9"/>
	<rect x="49.7" y="258.2" class="st7" width="13.9" height="13.9"/>
	<rect x="71.6" y="268.1" class="st7" width="13.9" height="13.9"/>
	<rect x="103.4" y="258.2" class="st7" width="13.9" height="13.9"/>
	<rect x="151.2" y="206.5" class="st15" width="59.7" height="15.9"/>
	<rect x="45.8" y="117" class="st16" width="31.8" height="17.9"/>
	<rect x="216.8" y="148.8" class="st6" width="27.8" height="27.8"/>
	<rect x="280.5" y="184.6" class="st17" width="13.9" height="13.9"/>
	<rect x="356" y="126.9" class="st18" width="13.9" height="13.9"/>
	<rect x="324.2" y="284" class="st7" width="13.9" height="13.9"/>
	<rect x="342.1" y="292" class="st7" width="13.9" height="13.9"/>
	<rect x="372" y="258.2" class="st7" width="13.9" height="13.9"/>
</g>
</svg>
