<?xml version="1.0" encoding="utf-8"?>
<!-- Generator: Adobe Illustrator 27.7.0, SVG Export Plug-In . SVG Version: 6.00 Build 0)  -->
<svg version="1.1" id="Layer_1" xmlns="http://www.w3.org/2000/svg" xmlns:xlink="http://www.w3.org/1999/xlink" x="0px" y="0px"
	 viewBox="0 0 501.1 428.3" style="enable-background:new 0 0 501.1 428.3;" xml:space="preserve">
<style type="text/css">
	.st0{fill:#EDB17A;}
	.st1{fill:#CF6D40;}
	.st2{fill:#301F29;}
	.st3{fill:#080719;}
	.st4{fill:#010822;}
	.st5{fill:#51281E;}
	.st6{fill:#09081A;}
	.st7{fill:#081321;}
	.st8{fill:#08061B;}
	.st9{fill:#89452B;}
	.st10{opacity:0.66;fill:#CF6D40;}
	.st11{fill:#35424B;}
	.st12{fill:#353535;}
	.st13{fill:#4E585E;}
	.st14{fill:#0F071F;}
	.st15{fill:#383838;}
	.st16{fill:#D69865;}
	.st17{fill:#697E9E;}
	.st18{fill:#4B668C;}
	.st19{fill:#243A54;}
	.st20{fill:#5A6F8E;}
	.st21{fill:#CC8656;}
	.st22{fill:#A05A2A;}
	.st23{fill:none;stroke:#FFFFFF;stroke-width:2.9131;stroke-miterlimit:10;}
	.st24{fill:none;stroke:#FFFFFF;stroke-width:2.9638;stroke-miterlimit:10;}
	.st25{fill:#00090C;}
	.st26{fill:#2D2D2D;}
	.st27{fill:#FFFFFF;}
	.st28{fill:#000600;}
	.st29{fill:#171717;}
	.st30{fill:#4B4B4B;}
	.st31{fill:#F7FBFA;}
	.st32{fill:#DAD6D7;}
	.st33{fill:#3E3E3E;}
	.st34{fill:#B0B1AB;}
	.st35{fill:#989898;}
	.st36{fill:#5B5B5B;}
	.st37{fill:#9D9D9D;}
	.st38{fill:#4F4F4F;}
</style>
<g>
	<g>
		
			<rect x="308.2" y="201.3" transform="matrix(-1 -4.481272e-11 4.481272e-11 -1 635.7841 418.2439)" class="st28" width="19.4" height="15.7"/>
		
			<rect x="303.7" y="197.9" transform="matrix(-1 -4.486645e-11 4.486645e-11 -1 647.1359 399.1997)" class="st28" width="39.7" height="3.4"/>
		
			<rect x="303.7" y="215.8" transform="matrix(-1 -4.486645e-11 4.486645e-11 -1 647.1359 435.0475)" class="st28" width="39.7" height="3.4"/>
		
			<rect x="306.5" y="203.6" transform="matrix(-1 -4.512314e-11 4.512314e-11 -1 620.1753 414.2857)" class="st27" width="7.1" height="7.1"/>
	</g>
	<g>
		
			<rect x="141.5" y="198.4" transform="matrix(-1 -4.481272e-11 4.481272e-11 -1 302.5024 412.568)" class="st28" width="19.4" height="15.7"/>
		
			<rect x="137.1" y="195.1" transform="matrix(-1 -4.486645e-11 4.486645e-11 -1 313.8542 393.5238)" class="st28" width="39.7" height="3.4"/>
		
			<rect x="137.1" y="213" transform="matrix(-1 -4.500412e-11 4.500412e-11 -1 313.8542 429.3716)" class="st28" width="39.7" height="3.4"/>
		
			<rect x="139.9" y="200.8" transform="matrix(-1 -4.537938e-11 4.537938e-11 -1 286.8936 408.6097)" class="st27" width="7.1" height="7.1"/>
	</g>
</g>
</svg>
