<?xml version="1.0" encoding="utf-8"?>
<!-- Generator: Adobe Illustrator 27.7.0, SVG Export Plug-In . SVG Version: 6.00 Build 0)  -->
<svg version="1.1" id="Layer_1" xmlns="http://www.w3.org/2000/svg" xmlns:xlink="http://www.w3.org/1999/xlink" x="0px" y="0px"
	 viewBox="0 0 501.1 428.3" style="enable-background:new 0 0 501.1 428.3;" xml:space="preserve">
<style type="text/css">
	.st0{fill:#EDB17A;}
	.st1{fill:#CF6D40;}
	.st2{fill:#301F29;}
	.st3{fill:#080719;}
	.st4{fill:#010822;}
	.st5{fill:#51281E;}
	.st6{fill:#09081A;}
	.st7{fill:#081321;}
	.st8{fill:#08061B;}
	.st9{fill:#89452B;}
	.st10{opacity:0.66;fill:#CF6D40;}
	.st11{fill:#35424B;}
	.st12{fill:#353535;}
	.st13{fill:#4E585E;}
	.st14{fill:#0F071F;}
	.st15{fill:#383838;}
	.st16{fill:#D69865;}
	.st17{fill:#697E9E;}
	.st18{fill:#4B668C;}
	.st19{fill:#243A54;}
	.st20{fill:#5A6F8E;}
	.st21{fill:#CC8656;}
	.st22{fill:#A05A2A;}
	.st23{fill:none;stroke:#FFFFFF;stroke-width:2.9131;stroke-miterlimit:10;}
	.st24{fill:none;stroke:#FFFFFF;stroke-width:2.9638;stroke-miterlimit:10;}
	.st25{fill:#00090C;}
	.st26{fill:#2D2D2D;}
	.st27{fill:#FFFFFF;}
	.st28{fill:#000600;}
	.st29{fill:#171717;}
	.st30{fill:#4B4B4B;}
	.st31{fill:#F7FBFA;}
	.st32{fill:#DAD6D7;}
	.st33{fill:#3E3E3E;}
	.st34{fill:#B0B1AB;}
	.st35{fill:#989898;}
	.st36{fill:#5B5B5B;}
	.st37{fill:#9D9D9D;}
	.st38{fill:#4F4F4F;}
</style>
<g>
	<polygon class="st25" points="60.4,193.2 60.4,222.6 74.3,222.6 74.3,238.6 91.1,238.6 91.1,256.6 110,256.6 110,270.6 
		187.9,270.6 187.9,257.1 204.2,257.1 204.2,238.6 221.2,238.6 221.2,222.6 242.1,222.6 242.1,238.6 256.8,238.6 256.8,255 
		272.3,255 272.3,270.6 353.7,270.6 353.7,255 369.7,255 369.7,240.7 386.7,240.7 386.7,222.6 402.7,222.6 402.7,193.2 	"/>
	<rect x="91.4" y="207.2" class="st27" width="17" height="17"/>
	<rect x="107.6" y="223.4" class="st27" width="17" height="17"/>
	<rect x="123.8" y="239.6" class="st27" width="17" height="17"/>
	<rect x="123.8" y="207.2" class="st27" width="17" height="17"/>
	<rect x="140.1" y="223.4" class="st27" width="17" height="17"/>
	<rect x="156.3" y="239.6" class="st27" width="17" height="17"/>
	<rect x="256.8" y="207.2" class="st27" width="17" height="17"/>
	<rect x="273" y="223.4" class="st27" width="17" height="17"/>
	<rect x="289.3" y="239.6" class="st27" width="17" height="17"/>
	<rect x="289.3" y="207.2" class="st27" width="17" height="17"/>
	<rect x="305.5" y="223.4" class="st27" width="17" height="17"/>
	<rect x="321.7" y="239.6" class="st27" width="17" height="17"/>
</g>
</svg>
