<?xml version="1.0" encoding="utf-8"?>
<!-- Generator: Adobe Illustrator 27.7.0, SVG Export Plug-In . SVG Version: 6.00 Build 0)  -->
<svg version="1.1" id="Layer_1" xmlns="http://www.w3.org/2000/svg" xmlns:xlink="http://www.w3.org/1999/xlink" x="0px" y="0px"
	 viewBox="0 0 501.1 428.3" style="enable-background:new 0 0 501.1 428.3;" xml:space="preserve">
<style type="text/css">
	.st0{fill:#EDB17A;}
	.st1{fill:#CF6D40;}
	.st2{fill:#301F29;}
	.st3{fill:#080719;}
	.st4{fill:#010822;}
	.st5{fill:#51281E;}
	.st6{fill:#09081A;}
	.st7{fill:#081321;}
	.st8{fill:#08061B;}
	.st9{fill:#89452B;}
	.st10{opacity:0.66;fill:#CF6D40;}
	.st11{fill:#35424B;}
	.st12{fill:#353535;}
	.st13{fill:#4E585E;}
	.st14{fill:#0F071F;}
	.st15{fill:#383838;}
	.st16{fill:#D69865;}
	.st17{fill:#697E9E;}
	.st18{fill:#4B668C;}
	.st19{fill:#243A54;}
	.st20{fill:#5A6F8E;}
	.st21{fill:#CC8656;}
	.st22{fill:#A05A2A;}
	.st23{fill:none;stroke:#FFFFFF;stroke-width:2.9131;stroke-miterlimit:10;}
	.st24{fill:none;stroke:#FFFFFF;stroke-width:2.9638;stroke-miterlimit:10;}
	.st25{fill:#00090C;}
	.st26{fill:#2D2D2D;}
	.st27{fill:#FFFFFF;}
	.st28{fill:#000600;}
	.st29{fill:#171717;}
	.st30{fill:#4B4B4B;}
	.st31{fill:#F7FBFA;}
	.st32{fill:#DAD6D7;}
	.st33{fill:#3E3E3E;}
	.st34{fill:#B0B1AB;}
	.st35{fill:#989898;}
	.st36{fill:#5B5B5B;}
	.st37{fill:#9D9D9D;}
	.st38{fill:#4F4F4F;}
</style>
<g>
	
		<rect x="137.7" y="238.1" transform="matrix(-1.836970e-16 1 -1 -1.836970e-16 424.8615 129.4059)" class="st29" width="20" height="78"/>
	<rect x="117.1" y="193.6" class="st29" width="30.7" height="84.9"/>
	
		<rect x="190.2" y="129.9" transform="matrix(-1.836970e-16 1 -1 -1.836970e-16 360.1858 -34.3955)" class="st26" width="14.2" height="66"/>
	
		<rect x="263.3" y="122.8" transform="matrix(-1.836970e-16 1 -1 -1.836970e-16 435.658 -107.5092)" class="st29" width="16.5" height="82.5"/>
	
		<rect x="139.5" y="147.6" transform="matrix(-1.836970e-16 1 -1 -1.836970e-16 311.8365 16.3124)" class="st30" width="16.5" height="33"/>
	
		<rect x="206.7" y="65" transform="matrix(-1.836970e-16 1 -1 -1.836970e-16 363.7236 -67.4146)" class="st31" width="17.7" height="166.3"/>
	
		<rect x="296.3" y="138.1" transform="matrix(-1.836970e-16 1 -1 -1.836970e-16 453.3468 -157.0378)" class="st32" width="17.7" height="20"/>
	
		<rect x="410" y="221" transform="matrix(-1.836970e-16 1 -1 -1.836970e-16 644.6945 -187.3897)" class="st33" width="12.2" height="15.3"/>
	
		<rect x="116.5" y="171.7" transform="matrix(-1.836970e-16 1 -1 -1.836970e-16 319.5016 55.8173)" class="st26" width="30.7" height="31.8"/>
	
		<rect x="61.1" y="222.4" transform="matrix(-1.836970e-16 1 -1 -1.836970e-16 340.7281 125.3932)" class="st31" width="93.2" height="21.2"/>
	
		<rect x="58.7" y="227.2" transform="matrix(-1.836970e-16 1 -1 -1.836970e-16 326.5771 148.9783)" class="st34" width="60.1" height="21.2"/>
	
		<rect x="77" y="188.8" transform="matrix(-1.836970e-16 1 -1 -1.836970e-16 285.8929 109.4733)" class="st35" width="22.4" height="17.7"/>
	
		<rect x="92.9" y="165.8" transform="matrix(-1.836970e-16 1 -1 -1.836970e-16 280.5863 72.3269)" class="st35" width="22.4" height="21.2"/>
	
		<rect x="112.4" y="153.5" transform="matrix(-1.836970e-16 1 -1 -1.836970e-16 284.7137 41.0767)" class="st35" width="18.9" height="18.9"/>
	
		<rect x="131.9" y="243.6" transform="matrix(-1.836970e-16 1 -1 -1.836970e-16 430.3816 146.5895)" class="st35" width="20" height="89.7"/>
	
		<rect x="286.7" y="242.9" transform="matrix(-1.836970e-16 1 -1 -1.836970e-16 575.7663 -17.6632)" class="st29" width="20" height="72.4"/>
	
		<rect x="279.4" y="269" transform="matrix(-1.836970e-16 1 -1 -1.836970e-16 581.8854 8.5031)" class="st35" width="14.6" height="52.3"/>
	<rect x="318.8" y="190" class="st29" width="28.3" height="81.4"/>
	<rect x="347.1" y="187.7" class="st30" width="15.3" height="77.8"/>
	<rect x="361.2" y="187.7" class="st36" width="15.3" height="77.8"/>
	<rect x="318.8" y="168.8" class="st37" width="29.5" height="18.9"/>
	<rect x="314" y="152.3" class="st37" width="15.3" height="18.9"/>
	<rect x="347.1" y="168.8" class="st37" width="29.5" height="18.9"/>
	<rect x="332.9" y="265.5" class="st35" width="28.3" height="23.6"/>
	<rect x="376.5" y="235.3" class="st26" width="47.2" height="14.9"/>
	<rect x="145.4" y="170" class="st29" width="179.2" height="99.1"/>
	<rect x="194.9" y="203" class="st27" width="18.9" height="18.9"/>
	<rect x="213.8" y="219.5" class="st27" width="18.9" height="18.9"/>
	<rect x="261" y="219.5" class="st27" width="18.9" height="18.9"/>
	<rect x="230.3" y="203" class="st27" width="18.9" height="18.9"/>
	<rect x="261" y="203" class="st27" width="37.7" height="18.9"/>
	<rect x="376.5" y="207.7" class="st15" width="16.5" height="27.6"/>
	<rect x="393" y="207.7" class="st38" width="16.5" height="27.6"/>
	
		<rect x="400.9" y="199.8" transform="matrix(-1.836970e-16 1 -1 -1.836970e-16 623.513 -193.2409)" class="st38" width="14.9" height="30.7"/>
</g>
</svg>
