<?xml version="1.0" encoding="utf-8" ?>
<svg xmlns="http://www.w3.org/2000/svg" xmlns:xlink="http://www.w3.org/1999/xlink" width="512" height="512">
	<path fill="#152020" transform="scale(0.666667 0.666667)" d="M347.531 191.717L349.513 190.877C349.588 189.835 349.111 189.137 348.566 188.25L348.191 187.688C348.158 186.262 347.826 183.962 348.46 182.692L348.752 182.252C349.28 181.15 350.017 180.373 350.812 179.441C351.073 178.41 350.997 177.738 350.863 176.703C349.512 175.733 347.663 175.914 346.057 175.888L336.287 175.791L336.206 144.168L351.728 144.084C352.46 150.048 352.018 156.53 352.062 162.558L351.986 171.473C351.975 172.543 352.192 174.374 351.938 175.375C351.926 175.418 351.387 176.006 351.375 176.015L351.05 176.167L351.307 176.617C352.409 179.119 350.555 180.473 350.397 182.754C350.209 185.483 350.908 188.264 350.718 191.062C349.683 191.615 348.675 191.63 347.531 191.717Z"/>
	<path fill="#152020" transform="scale(0.666667 0.666667)" d="M415.522 79.9825L415.871 96.0617L431.942 96.0216L431.93 112.005L415.658 111.85L415.579 135.007C415.586 137.666 416.18 141.472 415.585 144.005L400.056 144.004L400.04 112.045L368.159 111.918L336.306 111.742L336.106 96.2182L352.299 96.0431L400.137 96.0123L400.082 80.0427L415.522 79.9825Z"/>
	<path transform="scale(0.666667 0.666667)" d="M352.299 96.0431L352.239 48.3316C357.097 47.974 362.129 48.2558 367.006 48.2581L395.302 48.2738L408.887 48.3011C410.683 48.3184 413.157 48.059 414.801 48.7033C415.95 50.6527 415.248 55.745 415.258 58.1846L415.522 79.9825L400.082 80.0427L400.137 96.0123L352.299 96.0431Z"/>
	<path fill="#D2D4D5" transform="scale(0.666667 0.666667)" d="M368.159 111.918L400.04 112.045L400.056 144.004L415.585 144.005L415.523 191.45L415.492 191.98L400.052 192.011L399.947 207.873C399.897 209.998 399.803 212.116 400.057 214.231L399.676 224.438C398.873 224.644 399.294 224.659 398.625 224.432C397.37 224.006 395.555 224.209 394.231 224.208C392.308 223.038 371.779 223.864 368 223.933L368.145 165.878C368.543 162.01 368.261 157.925 368.237 154.023L367.959 135.744L367.97 133.23L368.159 111.918Z"/>
	<defs>
		<linearGradient id="gradient_0" gradientUnits="userSpaceOnUse" x1="272.85858" y1="477.19022" x2="430.2308" y2="487.78418">
			<stop offset="0" stop-color="#162223"/>
			<stop offset="1" stop-color="#3E3C3C"/>
		</linearGradient>
	</defs>
	<path fill="url(#gradient_0)" transform="scale(0.666667 0.666667)" d="M415.953 703.919C415.074 708.935 415.771 714.783 415.718 719.916L320.329 719.767C319.843 718.171 320.142 715.998 320.155 714.322L320.1 703.839L288.318 703.631L288.212 240.286C293.321 239.6 298.942 240.028 304.114 240.017L303.87 256.125L303.998 688.127L351.991 688.148L351.974 698.848C351.974 700.461 351.735 702.528 352.156 704.073L368.027 704.026L368.054 688.059L416.03 688.039L415.953 703.919Z"/>
	<path fill="#152020" transform="scale(0.666667 0.666667)" d="M415.492 191.98L431.924 192.05L431.983 208.083L443.757 208.127C444.942 208.127 446.891 207.852 447.964 208.313L448.009 224.109L463.9 224.291C463.79 229.447 463.398 234.923 463.916 240.049L479.937 240.041L479.897 562.606L479.896 658.822L479.894 688.581C479.894 693.59 480.277 698.9 479.777 703.87L447.889 703.813L447.952 719.816L432.307 719.712C432.247 714.586 432.745 708.806 431.976 703.767L415.953 703.919L416.03 688.039L464.021 688.059L464.005 256.072L448.06 256.036L447.998 240.035L432.057 240.063L428.084 239.976L424.896 239.674L416.27 239.63L390.165 239.143C390.78 238.59 393.017 238.538 393.95 238.145C395.334 237.562 395.314 236.968 395.854 235.681C395.638 234.826 395.396 234.046 395.543 233.158C395.888 231.069 396.189 229.024 396.19 226.897C395.652 226.502 395.475 226.342 395.228 225.693C394.948 224.959 394.761 224.972 394.125 224.526L394.231 224.208C395.555 224.209 397.37 224.006 398.625 224.432C399.294 224.659 398.873 224.644 399.676 224.438L400.057 214.231C399.803 212.116 399.897 209.998 399.947 207.873L400.052 192.011L415.492 191.98ZM399.947 207.873C399.897 209.998 399.803 212.116 400.057 214.231L399.676 224.438C398.873 224.644 399.294 224.659 398.625 224.432C397.37 224.006 395.555 224.209 394.231 224.208L394.125 224.526C394.761 224.972 394.948 224.959 395.228 225.693C395.475 226.342 395.652 226.502 396.19 226.897C396.189 229.024 395.888 231.069 395.543 233.158C395.396 234.046 395.638 234.826 395.854 235.681C395.314 236.968 395.334 237.562 393.95 238.145C393.017 238.538 390.78 238.59 390.165 239.143L416.27 239.63L424.896 239.674L422.744 239.062L423.089 238.125C422.856 236.292 421.376 231.208 419.853 229.968C418.752 229.073 417.238 228.613 416.062 227.633C415.749 226.867 415.958 226.299 416.141 225.53C416.29 224.906 415.826 224.43 415.533 223.875L415.965 223.941C416.327 222.351 416.141 220.493 416.14 218.853L416.115 208.895L415.83 207.948C410.698 207.427 405.126 207.865 399.947 207.873ZM424.896 239.674L428.084 239.976L432.057 240.063L432.027 223.824L421.346 223.902L415.965 223.941L415.533 223.875C415.826 224.43 416.29 224.906 416.141 225.53C415.958 226.299 415.749 226.867 416.062 227.633C417.238 228.613 418.752 229.073 419.853 229.968C421.376 231.208 422.856 236.292 423.089 238.125L422.744 239.062L424.896 239.674Z"/>
	<path fill="#FEFEFD" fill-opacity="0.19607843" transform="scale(0.666667 0.666667)" d="M424.896 239.674L422.744 239.062L423.089 238.125C422.856 236.292 421.376 231.208 419.853 229.968C418.752 229.073 417.238 228.613 416.062 227.633C415.749 226.867 415.958 226.299 416.141 225.53C416.29 224.906 415.826 224.43 415.533 223.875L415.965 223.941L421.346 223.902C420.458 224.105 419.572 224.272 418.719 224.597C419.261 225.027 418.93 224.809 419.752 225.188L419.306 226.125C421.102 228.575 426.117 228.273 427.365 231.005C427.768 231.888 427.543 234.401 427.421 235.369C427.26 236.658 426.69 238.104 425.812 239.077L428.084 239.976L424.896 239.674Z"/>
	<path fill="#FDFDFC" fill-opacity="0.54509807" transform="scale(0.666667 0.666667)" d="M399.947 207.873C405.126 207.865 410.698 207.427 415.83 207.948L416.115 208.895L416.14 218.853C416.141 220.493 416.327 222.351 415.965 223.941L415.533 223.875C415.826 224.43 416.29 224.906 416.141 225.53C415.958 226.299 415.749 226.867 416.062 227.633C417.238 228.613 418.752 229.073 419.853 229.968C421.376 231.208 422.856 236.292 423.089 238.125L422.744 239.062L424.896 239.674L416.27 239.63L390.165 239.143C390.78 238.59 393.017 238.538 393.95 238.145C395.334 237.562 395.314 236.968 395.854 235.681C395.638 234.826 395.396 234.046 395.543 233.158C395.888 231.069 396.189 229.024 396.19 226.897C395.652 226.502 395.475 226.342 395.228 225.693C394.948 224.959 394.761 224.972 394.125 224.526L394.231 224.208C395.555 224.209 397.37 224.006 398.625 224.432C399.294 224.659 398.873 224.644 399.676 224.438L400.057 214.231C399.803 212.116 399.897 209.998 399.947 207.873ZM399.947 207.873C399.897 209.998 399.803 212.116 400.057 214.231C401.847 212.418 402.48 211.828 405 211.615C405.6 211.565 406.476 211.379 407.062 211.502C407.524 211.599 407.943 211.849 408.401 211.961C409.795 212.302 411.46 211.616 412.688 212.434C412.4 213.015 412.583 213.31 412.688 213.934L413.224 213.375L414.058 212.387C415.357 211.178 415.581 210.653 416.115 208.895L415.83 207.948C410.698 207.427 405.126 207.865 399.947 207.873Z"/>
	<path fill="#FEFEFD" fill-opacity="0.42352942" transform="scale(0.666667 0.666667)" d="M399.947 207.873C405.126 207.865 410.698 207.427 415.83 207.948L416.115 208.895C415.581 210.653 415.357 211.178 414.058 212.387L413.224 213.375L412.688 213.934C412.583 213.31 412.4 213.015 412.688 212.434C411.46 211.616 409.795 212.302 408.401 211.961C407.943 211.849 407.524 211.599 407.062 211.502C406.476 211.379 405.6 211.565 405 211.615C402.48 211.828 401.847 212.418 400.057 214.231C399.803 212.116 399.897 209.998 399.947 207.873Z"/>
	<path fill="#D2D4D5" transform="scale(0.666667 0.666667)" d="M352.363 143.698C353.142 141.256 353.27 138.498 354.144 136.192C355.106 133.656 357.158 132.77 359.442 131.678C360.964 130.95 362.283 130.727 363.935 131.342C364.544 131.568 365.087 131.707 365.722 131.835L366.562 131.123L367.259 133.688C367.655 133.71 367.374 133.729 367.97 133.23L367.959 135.744L368.237 154.023C368.261 157.925 368.543 162.01 368.145 165.878L368 223.933C371.779 223.864 392.308 223.038 394.231 224.208L394.125 224.526C394.761 224.972 394.948 224.959 395.228 225.693C395.475 226.342 395.652 226.502 396.19 226.897C396.189 229.024 395.888 231.069 395.543 233.158C395.396 234.046 395.638 234.826 395.854 235.681C395.314 236.968 395.334 237.562 393.95 238.145C393.017 238.538 390.78 238.59 390.165 239.143L416.27 239.63L424.896 239.674L428.084 239.976L432.057 240.063L447.998 240.035L448.06 256.036L464.005 256.072L464.021 688.059L416.03 688.039L368.054 688.059L368.027 704.026L352.156 704.073C351.735 702.528 351.974 700.461 351.974 698.848L351.991 688.148L303.998 688.127L303.87 256.125L304.114 240.017L304.192 224.217L320.257 224.237L320.347 208.507C325.113 207.548 331.095 208.165 336.01 208.151C336.621 202.936 336.167 197.385 336.174 192.123L347.165 191.735L347.531 191.717C348.675 191.63 349.683 191.615 350.718 191.062C350.908 188.264 350.209 185.483 350.397 182.754C350.555 180.473 352.409 179.119 351.307 176.617L351.05 176.167L351.375 176.015C351.387 176.006 351.926 175.418 351.938 175.375C352.192 174.374 351.975 172.543 351.986 171.473L352.062 162.558C352.018 156.53 352.46 150.048 351.728 144.084L352.363 143.698ZM352.363 143.698L351.728 144.084C352.46 150.048 352.018 156.53 352.062 162.558L351.986 171.473C351.975 172.543 352.192 174.374 351.938 175.375C351.926 175.418 351.387 176.006 351.375 176.015L351.05 176.167L351.307 176.617C352.409 179.119 350.555 180.473 350.397 182.754C350.209 185.483 350.908 188.264 350.718 191.062C349.683 191.615 348.675 191.63 347.531 191.717L347.165 191.735L336.174 192.123C336.167 197.385 336.621 202.936 336.01 208.151C331.095 208.165 325.113 207.548 320.347 208.507L320.257 224.237L304.192 224.217L304.114 240.017L303.87 256.125L304.137 256.125C304.648 260.011 304.255 264.46 304.255 268.406L304.253 294.164L304.247 383.25L304.304 683.732C307.801 683.967 311.318 683.76 314.823 683.88C316.18 683.926 317.675 683.841 318.974 684.268C317.828 684.669 316.894 684.685 316.311 685.781C316.789 686.067 317.033 686.167 317.602 686.215C318.182 686.263 318.714 686.332 319.286 686.438C317.943 686.699 316.701 687.125 315.411 687.575L352.114 687.74L352.089 240.077L392.897 239.968C400.345 239.979 408.504 240.594 415.879 239.684L416.27 239.63L390.165 239.143C390.78 238.59 393.017 238.538 393.95 238.145C395.334 237.562 395.314 236.968 395.854 235.681C395.638 234.826 395.396 234.046 395.543 233.158C395.888 231.069 396.189 229.024 396.19 226.897C395.652 226.502 395.475 226.342 395.228 225.693C394.948 224.959 394.761 224.972 394.125 224.526L394.231 224.208C392.308 223.038 371.779 223.864 368 223.933L368.145 165.878C368.543 162.01 368.261 157.925 368.237 154.023L367.959 135.744L367.97 133.23C367.374 133.729 367.655 133.71 367.259 133.688L366.562 131.123L365.722 131.835C365.087 131.707 364.544 131.568 363.935 131.342C362.283 130.727 360.964 130.95 359.442 131.678C357.158 132.77 355.106 133.656 354.144 136.192C353.27 138.498 353.142 141.256 352.363 143.698Z"/>
	<defs>
		<linearGradient id="gradient_1" gradientUnits="userSpaceOnUse" x1="415.9632" y1="411.95703" x2="276.98819" y2="426.91675">
			<stop offset="0" stop-color="#FCFCFB" stop-opacity="0.85490197"/>
			<stop offset="1" stop-color="white"/>
		</linearGradient>
	</defs>
	<path fill="url(#gradient_1)" transform="scale(0.666667 0.666667)" d="M352.363 143.698C353.142 141.256 353.27 138.498 354.144 136.192C355.106 133.656 357.158 132.77 359.442 131.678C360.964 130.95 362.283 130.727 363.935 131.342C364.544 131.568 365.087 131.707 365.722 131.835L366.562 131.123L367.259 133.688C367.655 133.71 367.374 133.729 367.97 133.23L367.959 135.744L368.237 154.023C368.261 157.925 368.543 162.01 368.145 165.878L368 223.933C371.779 223.864 392.308 223.038 394.231 224.208L394.125 224.526C394.761 224.972 394.948 224.959 395.228 225.693C395.475 226.342 395.652 226.502 396.19 226.897C396.189 229.024 395.888 231.069 395.543 233.158C395.396 234.046 395.638 234.826 395.854 235.681C395.314 236.968 395.334 237.562 393.95 238.145C393.017 238.538 390.78 238.59 390.165 239.143L416.27 239.63L415.879 239.684C408.504 240.594 400.345 239.979 392.897 239.968L352.089 240.077L352.114 687.74L315.411 687.575C316.701 687.125 317.943 686.699 319.286 686.438C318.714 686.332 318.182 686.263 317.602 686.215C317.033 686.167 316.789 686.067 316.311 685.781C316.894 684.685 317.828 684.669 318.974 684.268C317.675 683.841 316.18 683.926 314.823 683.88C311.318 683.76 307.801 683.967 304.304 683.732L304.247 383.25L304.253 294.164L304.255 268.406C304.255 264.46 304.648 260.011 304.137 256.125L303.87 256.125L304.114 240.017L304.192 224.217L320.257 224.237L320.347 208.507C325.113 207.548 331.095 208.165 336.01 208.151C336.621 202.936 336.167 197.385 336.174 192.123L347.165 191.735L347.531 191.717C348.675 191.63 349.683 191.615 350.718 191.062C350.908 188.264 350.209 185.483 350.397 182.754C350.555 180.473 352.409 179.119 351.307 176.617L351.05 176.167L351.375 176.015C351.387 176.006 351.926 175.418 351.938 175.375C352.192 174.374 351.975 172.543 351.986 171.473L352.062 162.558C352.018 156.53 352.46 150.048 351.728 144.084L352.363 143.698ZM352.363 143.698L351.728 144.084C352.46 150.048 352.018 156.53 352.062 162.558C352.992 162.392 353.869 162.65 354.788 162.491L354.934 161.065C355.674 157.693 354.434 153.372 355.745 150.327C356.918 150.948 357.245 150.881 358.522 151.069L359.72 151.436L360.027 151.328C361.608 152.793 363.185 153.694 364.877 154.958L366.566 154.688L366.553 155.024C366.533 155.712 366.495 156.177 366.754 156.823C367.76 159.34 366.275 163.728 368.145 165.878C368.543 162.01 368.261 157.925 368.237 154.023L367.959 135.744L367.97 133.23C367.374 133.729 367.655 133.71 367.259 133.688L366.562 131.123L365.722 131.835C365.087 131.707 364.544 131.568 363.935 131.342C362.283 130.727 360.964 130.95 359.442 131.678C357.158 132.77 355.106 133.656 354.144 136.192C353.27 138.498 353.142 141.256 352.363 143.698ZM304.114 240.017L303.87 256.125L304.137 256.125C303.92 253.405 304.176 250.602 304.299 247.875C304.677 248.588 304.404 248.35 305.062 248.647C306.024 247.36 305.947 247.389 305.814 245.895C306.003 245.695 306.753 244.761 306.942 244.704C309.089 244.064 312.206 245.125 314.541 244.528C315.367 244.316 316.077 244.455 316.875 244.307C319.223 243.874 321.437 244.131 323.796 243.881C326.645 243.58 329.421 242.609 332.308 242.859L333.562 242.976C334.869 243.011 335.255 242.491 336.174 241.688L336.096 239.962L308.625 240.161L308.995 240.472L308.812 240.74C307.836 240.849 306.74 241.197 305.859 240.75C306.517 240.29 306.211 240.398 307.029 240.266L307.619 240.188L304.114 240.017Z"/>
	<defs>
		<linearGradient id="gradient_2" gradientUnits="userSpaceOnUse" x1="322.35046" y1="243.51793" x2="323.21451" y2="239.78658">
			<stop offset="0" stop-color="#FFFEFD" stop-opacity="0.80000001"/>
			<stop offset="1" stop-color="#FDFBFD" stop-opacity="0.87843138"/>
		</linearGradient>
	</defs>
	<path fill="url(#gradient_2)" transform="scale(0.666667 0.666667)" d="M304.114 240.017L307.619 240.188L307.029 240.266C306.211 240.398 306.517 240.29 305.859 240.75C306.74 241.197 307.836 240.849 308.812 240.74L308.995 240.472L308.625 240.161L336.096 239.962L336.174 241.688C335.255 242.491 334.869 243.011 333.562 242.976L332.308 242.859C329.421 242.609 326.645 243.58 323.796 243.881C321.437 244.131 319.223 243.874 316.875 244.307C316.077 244.455 315.367 244.316 314.541 244.528C312.206 245.125 309.089 244.064 306.942 244.704C306.753 244.761 306.003 245.695 305.814 245.895C305.947 247.389 306.024 247.36 305.062 248.647C304.404 248.35 304.677 248.588 304.299 247.875C304.176 250.602 303.92 253.405 304.137 256.125L303.87 256.125L304.114 240.017Z"/>
	<defs>
		<linearGradient id="gradient_3" gradientUnits="userSpaceOnUse" x1="364.78894" y1="151.04755" x2="363.85645" y2="154.31642">
			<stop offset="0" stop-color="#FAFAF9" stop-opacity="0.63529414"/>
			<stop offset="1" stop-color="#FAFAF9" stop-opacity="0.7019608"/>
		</linearGradient>
	</defs>
	<path fill="url(#gradient_3)" transform="scale(0.666667 0.666667)" d="M352.363 143.698C353.142 141.256 353.27 138.498 354.144 136.192C355.106 133.656 357.158 132.77 359.442 131.678C360.964 130.95 362.283 130.727 363.935 131.342C364.544 131.568 365.087 131.707 365.722 131.835L366.562 131.123L367.259 133.688C367.655 133.71 367.374 133.729 367.97 133.23L367.959 135.744L368.237 154.023C368.261 157.925 368.543 162.01 368.145 165.878C366.275 163.728 367.76 159.34 366.754 156.823C366.495 156.177 366.533 155.712 366.553 155.024L366.566 154.688L364.877 154.958C363.185 153.694 361.608 152.793 360.027 151.328L359.72 151.436L358.522 151.069C357.245 150.881 356.918 150.948 355.745 150.327C354.434 153.372 355.674 157.693 354.934 161.065L354.788 162.491C353.869 162.65 352.992 162.392 352.062 162.558C352.018 156.53 352.46 150.048 351.728 144.084L352.363 143.698ZM352.363 143.698L352.934 143.698L353.625 144.381L354.296 144.267C355.038 144.151 355.528 144.236 356.25 144.46C357.87 143.417 358.744 141.731 360.562 141.191C361.718 141.764 361.858 142.14 362.632 143.062L364.831 145.508L364.773 145.827L365.292 146.427C365.426 145.598 365.414 145.527 366 144.938L366.562 144.941L366.75 144.562L365.816 144L366.094 142.877C366.262 143.339 366.231 143.539 366.656 143.814L366.844 142.245C367.397 143.148 367.471 144.6 367.651 145.66L367.959 135.744L367.97 133.23C367.374 133.729 367.655 133.71 367.259 133.688L366.562 131.123L365.722 131.835C365.087 131.707 364.544 131.568 363.935 131.342C362.283 130.727 360.964 130.95 359.442 131.678C357.158 132.77 355.106 133.656 354.144 136.192C353.27 138.498 353.142 141.256 352.363 143.698ZM355.745 150.327C356.918 150.948 357.245 150.881 358.522 151.069L359.72 151.436L360.027 151.328L360.575 150.761L361.684 150.938C361.303 150.363 360.946 149.85 360.47 149.346L360.097 148.969C360.291 147.917 360.073 147.544 359.627 146.623L359.012 146.508C358.493 147.036 357.993 147.513 357.584 148.134L357.375 148.483L355.875 148.42L355.479 148.875C355.824 149.331 355.717 149.767 355.745 150.327Z"/>
	<path fill="#FEFEFD" fill-opacity="0.65098041" transform="scale(0.666667 0.666667)" d="M355.745 150.327C355.717 149.767 355.824 149.331 355.479 148.875L355.875 148.42L357.375 148.483L357.584 148.134C357.993 147.513 358.493 147.036 359.012 146.508L359.627 146.623C360.073 147.544 360.291 147.917 360.097 148.969L360.47 149.346C360.946 149.85 361.303 150.363 361.684 150.938L360.575 150.761L360.027 151.328L359.72 151.436L358.522 151.069C357.245 150.881 356.918 150.948 355.745 150.327Z"/>
	<path fill="#FDFDFC" fill-opacity="0.29411766" transform="scale(0.666667 0.666667)" d="M352.363 143.698C353.142 141.256 353.27 138.498 354.144 136.192C355.106 133.656 357.158 132.77 359.442 131.678C360.964 130.95 362.283 130.727 363.935 131.342C364.544 131.568 365.087 131.707 365.722 131.835L366.562 131.123L367.259 133.688C367.655 133.71 367.374 133.729 367.97 133.23L367.959 135.744L367.651 145.66C367.471 144.6 367.397 143.148 366.844 142.245L366.656 143.814C366.231 143.539 366.262 143.339 366.094 142.877L365.816 144L366.75 144.562L366.562 144.941L366 144.938C365.414 145.527 365.426 145.598 365.292 146.427L364.773 145.827L364.831 145.508L362.632 143.062C361.858 142.14 361.718 141.764 360.562 141.191C358.744 141.731 357.87 143.417 356.25 144.46C355.528 144.236 355.038 144.151 354.296 144.267L353.625 144.381L352.934 143.698L352.363 143.698ZM352.934 143.698L353.625 144.381L354.296 144.267C355.038 144.151 355.528 144.236 356.25 144.46C357.87 143.417 358.744 141.731 360.562 141.191C361.718 141.764 361.858 142.14 362.632 143.062L364.831 145.508L364.607 140.411L360.619 137.419L359.812 138.106C358.154 139.258 357.164 141.37 355.549 142.285L355.125 142.486C354.415 142.983 354.12 143.257 353.259 143.58L352.934 143.698Z"/>
	<path fill="#FDFDFC" fill-opacity="0.38431373" transform="scale(0.666667 0.666667)" d="M352.934 143.698L353.259 143.58C354.12 143.257 354.415 142.983 355.125 142.486L355.549 142.285C357.164 141.37 358.154 139.258 359.812 138.106L360.619 137.419L364.607 140.411L364.831 145.508L362.632 143.062C361.858 142.14 361.718 141.764 360.562 141.191C358.744 141.731 357.87 143.417 356.25 144.46C355.528 144.236 355.038 144.151 354.296 144.267L353.625 144.381L352.934 143.698Z"/>
	<path fill="#152020" transform="scale(0.666667 0.666667)" d="M304.114 240.017L304.192 224.217L320.257 224.237L320.347 208.507C325.113 207.548 331.095 208.165 336.01 208.151C336.621 202.936 336.167 197.385 336.174 192.123L347.165 191.735L347.859 191.828L352.019 191.962L351.971 223.908C347.869 223.923 343.227 223.525 339.191 224.062C339.866 225.06 339.724 225.689 339.758 226.875C339.187 228.034 338.714 229.066 337.86 230.04C337.138 230.864 337.058 231.72 336.875 232.765C336.65 231.967 336.605 229.811 336.155 229.312L335.999 237.245C335.991 238.042 335.81 239.26 336.096 239.962L308.625 240.161L308.995 240.472L308.812 240.74C307.836 240.849 306.74 241.197 305.859 240.75C306.517 240.29 306.211 240.398 307.029 240.266L307.619 240.188L304.114 240.017Z"/>
</svg>
