<?xml version="1.0" encoding="utf-8"?>
<!-- Generator: Adobe Illustrator 27.7.0, SVG Export Plug-In . SVG Version: 6.00 Build 0)  -->
<svg version="1.1" id="Layer_1" xmlns="http://www.w3.org/2000/svg" xmlns:xlink="http://www.w3.org/1999/xlink" x="0px" y="0px"
	 viewBox="0 0 536.1 494.3" style="enable-background:new 0 0 536.1 494.3;" xml:space="preserve">
<style type="text/css">
	.st0{fill:#2B3C51;}
	.st1{fill:#EDB88C;}
	.st2{fill:#CF6D40;}
	.st3{fill:#C1916C;}
	.st4{fill:#997653;}
	.st5{fill:#301F29;}
	.st6{fill:#080719;}
	.st7{fill:#010822;}
	.st8{fill:#51281E;}
	.st9{fill:#09081A;}
	.st10{fill:#081321;}
	.st11{fill:#08061B;}
	.st12{fill:#89452B;}
	.st13{fill:#B57F5B;}
	.st14{fill:#A07558;}
	.st15{fill:#EAA2E2;}
	.st16{fill:#CC87C7;}
	.st17{fill:#B772B6;}
	.st18{fill:#D69865;}
	.st19{fill:#243F66;}
	.st20{fill:#46698C;}
	.st21{fill:#0F071F;}
	.st22{fill:#2E517A;}
	.st23{fill:#CC8656;}
	.st24{fill:#35424B;}
	.st25{fill:#5A6F8E;}
	.st26{fill:#D390CE;}
	.st27{fill:#A05A2A;}
	.st28{fill:#EDB7EC;}
	.st29{fill:#D184CB;}
	.st30{fill:#CCCCCC;}
	.st31{fill:#FFFFFF;}
	.st32{fill:#00090C;}
	.st33{fill:#000600;}
	.st34{fill:#171717;}
	.st35{fill:#2D2D2D;}
	.st36{fill:#4B4B4B;}
	.st37{fill:#F7FBFA;}
	.st38{fill:#DAD6D7;}
	.st39{fill:#3E3E3E;}
	.st40{fill:#5B5B5B;}
	.st41{fill:#9D9D9D;}
	.st42{fill:#B0B1AB;}
	.st43{fill:#E2DBD3;}
	.st44{fill:#989898;}
	.st45{fill:#383838;}
	.st46{fill:#4F4F4F;}
	.st47{fill:none;stroke:#00090C;stroke-width:5;stroke-miterlimit:10;}
	.st48{fill:#01223F;}
</style>
<g>
	
		<rect x="302.8" y="238.7" transform="matrix(-1 -4.381574e-11 4.381574e-11 -1 704.4333 558.5096)" class="st31" width="98.8" height="81.1"/>
	
		<rect x="126.4" y="245.8" transform="matrix(-1 -4.878110e-11 4.878110e-11 -1 365.3315 572.3333)" class="st31" width="112.5" height="80.8"/>
	<g>
		
			<rect x="261.4" y="239.8" transform="matrix(6.123234e-17 -1 1 6.123234e-17 9.3747 529.6736)" class="st48" width="16.3" height="40.8"/>
		<g>
			<rect x="122.8" y="252" class="st48" width="14.9" height="58.4"/>
			
				<rect x="179.9" y="208.5" transform="matrix(6.123234e-17 -1 1 6.123234e-17 -50.3931 425.08)" class="st48" width="14.9" height="58.4"/>
			
				<rect x="126.6" y="310.4" transform="matrix(6.123234e-17 -1 1 6.123234e-17 -183.7648 453.353)" class="st48" width="16.3" height="16.3"/>
			
				<rect x="135.7" y="229.6" transform="matrix(6.123234e-17 -1 1 6.123234e-17 -101.3316 387.7251)" class="st48" width="14.9" height="29.9"/>
			
				<rect x="224" y="229.6" transform="matrix(6.123234e-17 -1 1 6.123234e-17 -13.0383 476.0184)" class="st48" width="14.9" height="29.9"/>
			
				<rect x="230.1" y="310.4" transform="matrix(6.123234e-17 -1 1 6.123234e-17 -80.277 556.8408)" class="st48" width="16.3" height="16.3"/>
			<rect x="234.2" y="252" class="st48" width="14.9" height="58.4"/>
			<rect x="289.2" y="245.9" class="st48" width="14.9" height="58.4"/>
			
				<rect x="346.3" y="202.4" transform="matrix(6.123234e-17 -1 1 6.123234e-17 122.1184 585.3663)" class="st48" width="14.9" height="58.4"/>
			
				<rect x="294.7" y="304.3" transform="matrix(6.123234e-17 -1 1 6.123234e-17 -9.6424 615.2502)" class="st48" width="16.3" height="16.3"/>
			
				<rect x="302.1" y="223.5" transform="matrix(6.123234e-17 -1 1 6.123234e-17 71.18 548.0114)" class="st48" width="14.9" height="29.9"/>
			
				<rect x="390.4" y="223.5" transform="matrix(6.123234e-17 -1 1 6.123234e-17 159.4733 636.3047)" class="st48" width="14.9" height="29.9"/>
			
				<rect x="396.5" y="304.3" transform="matrix(6.123234e-17 -1 1 6.123234e-17 92.2345 717.1271)" class="st48" width="16.3" height="16.3"/>
			<rect x="400.6" y="245.9" class="st48" width="14.9" height="58.4"/>
			<rect x="78.5" y="251.6" class="st48" width="49.9" height="22.6"/>
		</g>
	</g>
</g>
</svg>
