<?xml version="1.0" encoding="utf-8"?>
<!-- Generator: Adobe Illustrator 27.7.0, SVG Export Plug-In . SVG Version: 6.00 Build 0)  -->
<svg version="1.1" id="Layer_1" xmlns="http://www.w3.org/2000/svg" xmlns:xlink="http://www.w3.org/1999/xlink" x="0px" y="0px"
	 viewBox="0 0 536.1 494.3" style="enable-background:new 0 0 536.1 494.3;" xml:space="preserve">
<style type="text/css">
	.st0{fill:#2B3C51;}
	.st1{fill:#EDB88C;}
	.st2{fill:#CF6D40;}
	.st3{fill:#C1916C;}
	.st4{fill:#997653;}
	.st5{fill:#301F29;}
	.st6{fill:#080719;}
	.st7{fill:#010822;}
	.st8{fill:#51281E;}
	.st9{fill:#09081A;}
	.st10{fill:#081321;}
	.st11{fill:#08061B;}
	.st12{fill:#89452B;}
	.st13{fill:#B57F5B;}
	.st14{fill:#A07558;}
	.st15{fill:#EAA2E2;}
	.st16{fill:#CC87C7;}
	.st17{fill:#B772B6;}
	.st18{fill:#D69865;}
	.st19{fill:#243F66;}
	.st20{fill:#46698C;}
	.st21{fill:#0F071F;}
	.st22{fill:#2E517A;}
	.st23{fill:#CC8656;}
	.st24{fill:#35424B;}
	.st25{fill:#5A6F8E;}
	.st26{fill:#D390CE;}
	.st27{fill:#A05A2A;}
	.st28{fill:#EDB7EC;}
	.st29{fill:#D184CB;}
	.st30{fill:#CCCCCC;}
	.st31{fill:#FFFFFF;}
	.st32{fill:#00090C;}
	.st33{fill:#000600;}
	.st34{fill:#171717;}
	.st35{fill:#2D2D2D;}
	.st36{fill:#4B4B4B;}
	.st37{fill:#F7FBFA;}
	.st38{fill:#DAD6D7;}
	.st39{fill:#3E3E3E;}
	.st40{fill:#5B5B5B;}
	.st41{fill:#9D9D9D;}
	.st42{fill:#B0B1AB;}
	.st43{fill:#E2DBD3;}
	.st44{fill:#989898;}
	.st45{fill:#383838;}
	.st46{fill:#4F4F4F;}
	.st47{fill:none;stroke:#00090C;stroke-width:5;stroke-miterlimit:10;}
	.st48{fill:#01223F;}
</style>
<g>
	
		<rect x="354.4" y="262.7" transform="matrix(-4.455121e-11 1 -1 -4.455121e-11 668.3475 -61.4338)" class="st34" width="20.9" height="81.5"/>
	
		<rect x="364.9" y="216.1" transform="matrix(-1 -4.491530e-11 4.491530e-11 -1 761.7438 520.9792)" class="st34" width="32" height="88.7"/>
	
		<rect x="305.7" y="149.6" transform="matrix(-4.453700e-11 1 -1 -4.453700e-11 497.2079 -129.0069)" class="st35" width="14.8" height="69"/>
	
		<rect x="226.9" y="142.2" transform="matrix(-4.492336e-11 1 -1 -4.492336e-11 420.8189 -50.1536)" class="st34" width="17.2" height="86.2"/>
	
		<rect x="356.2" y="168.1" transform="matrix(-4.545094e-11 1 -1 -4.545094e-11 550.1875 -179.5222)" class="st36" width="17.2" height="34.5"/>
	
		<rect x="284.8" y="81.8" transform="matrix(-4.497932e-11 1 -1 -4.497932e-11 462.7097 -125.3106)" class="st37" width="18.5" height="173.7"/>
	
		<rect x="191.1" y="158.2" transform="matrix(-4.429098e-11 1 -1 -4.429098e-11 369.0714 -31.6724)" class="st38" width="18.5" height="20.9"/>
	
		<rect x="78.2" y="244.8" transform="matrix(-4.533370e-11 1 -1 -4.533370e-11 337.3598 168.2474)" class="st39" width="12.7" height="16"/>
	
		<rect x="365.5" y="193.3" transform="matrix(-4.497221e-11 1 -1 -4.497221e-11 591.4622 -171.5137)" class="st35" width="32" height="33.3"/>
	
		<rect x="358.1" y="246.3" transform="matrix(-4.488872e-11 1 -1 -4.488872e-11 664.155 -149.3362)" class="st36" width="97.3" height="22.2"/>
	
		<rect x="395" y="251.2" transform="matrix(-4.498553e-11 1 -1 -4.498553e-11 688.7967 -164.1212)" class="st40" width="62.8" height="22.2"/>
	
		<rect x="415.4" y="211.2" transform="matrix(-4.475727e-11 1 -1 -4.475727e-11 647.522 -206.628)" class="st41" width="23.4" height="18.5"/>
	
		<rect x="398.7" y="187.2" transform="matrix(-4.530084e-11 1 -1 -4.530084e-11 608.7114 -212.1724)" class="st41" width="23.4" height="22.2"/>
	
		<rect x="382.1" y="174.2" transform="matrix(-4.502905e-11 1 -1 -4.502905e-11 576.0612 -207.8601)" class="st41" width="19.7" height="19.7"/>
	
		<rect x="360.5" y="268.5" transform="matrix(-4.463825e-11 1 -1 -4.463825e-11 686.3009 -55.6665)" class="st35" width="20.9" height="93.7"/>
	
		<rect x="198.8" y="267.6" transform="matrix(-4.498553e-11 1 -1 -4.498553e-11 514.6899 96.2314)" class="st34" width="20.9" height="75.6"/>
	
		<rect x="212.1" y="295" transform="matrix(-4.460895e-11 1 -1 -4.460895e-11 542.0284 102.6245)" class="st35" width="15.3" height="54.7"/>
	
		<rect x="156.6" y="212.4" transform="matrix(-1 -4.487534e-11 4.487534e-11 -1 342.836 509.8905)" class="st34" width="29.6" height="85"/>
	
		<rect x="140.6" y="210" transform="matrix(-1 -4.474522e-11 4.474522e-11 -1 297.2489 501.266)" class="st37" width="16" height="81.3"/>
	
		<rect x="125.8" y="210" transform="matrix(-1 -4.491530e-11 4.491530e-11 -1 267.679 501.266)" class="st42" width="16" height="81.3"/>
	
		<rect x="155.4" y="190.3" transform="matrix(-1 -4.479274e-11 4.479274e-11 -1 341.6039 400.2352)" class="st37" width="30.8" height="19.7"/>
	
		<rect x="175.1" y="173" transform="matrix(-1 -4.497215e-11 4.497215e-11 -1 366.2455 365.7369)" class="st37" width="16" height="19.7"/>
	
		<rect x="125.8" y="190.3" transform="matrix(-1 -4.488111e-11 4.488111e-11 -1 282.464 400.2352)" class="st43" width="30.8" height="19.7"/>
	
		<rect x="141.8" y="291.3" transform="matrix(-1 -4.484425e-11 4.484425e-11 -1 313.266 607.225)" class="st44" width="29.6" height="24.6"/>
	
		<rect x="76.5" y="259.8" transform="matrix(-1 -4.486290e-11 4.486290e-11 -1 202.3786 535.025)" class="st35" width="49.3" height="15.5"/>
	
		<rect x="180" y="191.5" transform="matrix(-1 -4.490731e-11 4.490731e-11 -1 547.3616 486.481)" class="st34" width="187.3" height="103.5"/>
	
		<rect x="295.9" y="226" transform="matrix(-1 -4.498281e-11 4.498281e-11 -1 611.4298 471.696)" class="st31" width="19.7" height="19.7"/>
	
		<rect x="276.1" y="243.2" transform="matrix(-1 -4.489044e-11 4.489044e-11 -1 572.0032 506.1943)" class="st31" width="19.7" height="19.7"/>
	
		<rect x="226.9" y="243.2" transform="matrix(-1 -4.479806e-11 4.479806e-11 -1 473.4366 506.1943)" class="st31" width="19.7" height="19.7"/>
	
		<rect x="258.9" y="226" transform="matrix(-1 -4.512136e-11 4.512136e-11 -1 537.5049 471.696)" class="st31" width="19.7" height="19.7"/>
	
		<rect x="207.1" y="226" transform="matrix(-1 -4.491353e-11 4.491353e-11 -1 453.7233 471.696)" class="st31" width="39.4" height="19.7"/>
	
		<rect x="108.6" y="230.9" transform="matrix(-1 -4.481805e-11 4.481805e-11 -1 234.4128 490.67)" class="st45" width="17.2" height="28.8"/>
	
		<rect x="91.3" y="230.9" transform="matrix(-1 -4.476520e-11 4.476520e-11 -1 199.9145 490.67)" class="st46" width="17.2" height="28.8"/>
	
		<rect x="84.8" y="222.7" transform="matrix(-4.522801e-11 1 -1 -4.522801e-11 331.2465 146.117)" class="st46" width="15.5" height="32"/>
</g>
</svg>
