<?xml version="1.0" encoding="utf-8"?>
<!-- Generator: Adobe Illustrator 27.7.0, SVG Export Plug-In . SVG Version: 6.00 Build 0)  -->
<svg version="1.1" id="Layer_1" xmlns="http://www.w3.org/2000/svg" xmlns:xlink="http://www.w3.org/1999/xlink" x="0px" y="0px"
	 viewBox="0 0 501.1 428.3" style="enable-background:new 0 0 501.1 428.3;" xml:space="preserve">
<style type="text/css">
	.st0{fill:#353535;}
	.st1{fill:#606060;}
	.st2{fill:#3A3A3A;}
	.st3{fill:#C6C6C6;}
	.st4{fill:#282727;}
	.st5{fill:#444446;}
	.st6{fill:#5D686C;}
	.st7{fill:#FFFFFF;}
	.st8{fill:#7692B9;}
	.st9{fill:#C9412B;}
	.st10{fill:#BF5653;}
	.st11{fill:#805988;}
	.st12{fill:#8A7D97;}
	.st13{fill:#3A3839;}
	.st14{fill:#5B6AA1;}
	.st15{fill:#BC618D;}
	.st16{fill:#79C0D2;}
	.st17{fill:#B69F1F;}
	.st18{fill:#2B8770;}
</style>
<g>
	<rect x="16.8" y="285.1" class="st0" width="79.6" height="27.8"/>
	<rect x="40.6" y="307" class="st0" width="55.7" height="25.9"/>
	<rect x="60.5" y="326.9" class="st0" width="55.7" height="25.9"/>
	<rect x="96.3" y="112.1" class="st1" width="387.8" height="232.7"/>
	<rect x="96.3" y="344.8" class="st2" width="369.9" height="17.9"/>
	<rect x="285" y="211.2" class="st3" width="24.4" height="19"/>
	<rect x="262" y="218" class="st3" width="19" height="19"/>
	<rect x="256.5" y="205.8" class="st3" width="14.9" height="12.2"/>
	<rect x="248.4" y="197.6" class="st3" width="8.1" height="8.1"/>
	<rect x="271.5" y="237" class="st3" width="9.5" height="9.5"/>
	
		<rect x="313.5" y="218" transform="matrix(-1 -4.493484e-11 4.493484e-11 -1 645.9761 454.9162)" class="st3" width="19" height="19"/>
	
		<rect x="323" y="205.8" transform="matrix(-1 -4.511781e-11 4.511781e-11 -1 660.8932 423.7258)" class="st3" width="14.9" height="12.2"/>
	
		<rect x="337.9" y="197.6" transform="matrix(-1 -4.471102e-11 4.471102e-11 -1 683.947 403.3842)" class="st3" width="8.1" height="8.1"/>
	
		<rect x="313.5" y="237" transform="matrix(-1 -4.445567e-11 4.445567e-11 -1 636.4833 483.3944)" class="st3" width="9.5" height="9.5"/>
	<rect x="290.4" y="230.2" class="st3" width="13.6" height="13.6"/>
	<rect x="287.7" y="243.7" class="st3" width="19" height="13.6"/>
</g>
</svg>
