<?xml version="1.0" encoding="utf-8"?>
<!-- Generator: Adobe Illustrator 27.7.0, SVG Export Plug-In . SVG Version: 6.00 Build 0)  -->
<svg version="1.1" id="Layer_1" xmlns="http://www.w3.org/2000/svg" xmlns:xlink="http://www.w3.org/1999/xlink" x="0px" y="0px"
	 viewBox="0 0 856 1080" style="enable-background:new 0 0 856 1080;" xml:space="preserve">
<style type="text/css">
	.st0{fill:#2B3C51;}
	.st1{fill:#EDB88C;}
	.st2{fill:#CF6D40;}
	.st3{fill:#C1916C;}
	.st4{fill:#997653;}
	.st5{fill:#301F29;}
	.st6{fill:#080719;}
	.st7{fill:#010822;}
	.st8{fill:#51281E;}
	.st9{fill:#09081A;}
	.st10{fill:#081321;}
	.st11{fill:#08061B;}
	.st12{fill:#89452B;}
	.st13{fill:#B57F5B;}
	.st14{fill:#A07558;}
	.st15{fill:#EAA2E2;}
	.st16{fill:#CC87C7;}
	.st17{fill:#B772B6;}
	.st18{fill:#D69865;}
	.st19{fill:#243F66;}
	.st20{fill:#46698C;}
	.st21{fill:#0F071F;}
	.st22{fill:#2E517A;}
	.st23{fill:#CC8656;}
	.st24{fill:#35424B;}
	.st25{fill:#5A6F8E;}
	.st26{fill:#D390CE;}
	.st27{fill:#A05A2A;}
	.st28{fill:#EDB7EC;}
	.st29{fill:#D184CB;}
	.st30{fill:#CCCCCC;}
	.st31{fill:#FFFFFF;}
</style>
<rect x="527.6" y="841.1" transform="matrix(-1 -3.796353e-11 3.796353e-11 -1 1082.3156 1704.7205)" class="st0" width="27.2" height="22.6"/>
<path class="st1" d="M305.1,451.5c0-8.4,0-16.8,0-25.2h287.4c-2.3,29.5-4.7,58.9-7,88.4c0.4,21.9,0.9,43.7,1.3,65.6
	c-12.7,21-25.4,42-38.1,63c-102.9,21.1-138.1,13.7-149.2,0.9c-2.2-2.6-8.3-10.8-19.7-17.2c-17.2-9.6-26.2-3.1-37.4-11.2
	c-11.2-8.1-7.9-19-19-43.3c-10.7-23.4-24.1-38.3-32.6-47.8c-26.4-29.3-45.4-32.3-44.9-43.3C246.2,473.8,256.2,462.9,305.1,451.5z"/>
<path class="st2" d="M586.5,505.3c-6.5,0.1-13,0.1-19.5,0.2c-19.7,0.2-39.4,0.4-59.1,0.5c0-4,0-8,0-11.9c21.1,0,42.2,0,63.4,0
	c0.3-6.2,0.5-12.4,0.8-18.7h14.4C586.5,485.4,586.5,495.4,586.5,505.3z"/>
<rect x="199.6" y="439.9" class="st1" width="106.3" height="106.3"/>
<rect x="300.2" y="245.8" transform="matrix(-1 -4.929314e-11 4.929314e-11 -1 877.7024 672.0909)" class="st1" width="277.3" height="180.6"/>
<path class="st2" d="M576.2,249.6c0.4,58.4,0.9,116.7,1.3,175.1c-5.2,0-10.5,0-15.7,0c-0.9-57.3-1.7-114.6-2.6-171.9
	C564.9,251.7,570.5,250.7,576.2,249.6z"/>
<path class="st3" d="M542.1,672.2c-55.6-1.3-111.1-2.6-166.7-3.9c-6.6-10.9-13.1-21.9-19.7-32.8c-12.8-0.3-25.7-0.6-38.5-1
	c0-8,0-15.9,0-23.9c-10-0.5-19.9-1-29.9-1.5c-1.2-61.7-2.5-123.3-3.7-185c7.1,0.5,14.3,0.9,21.4,1.4c0,32.1,0.1,64.2,0.1,96.3
	c6,15.6,11.9,31.1,17.9,46.7c11.4,0,22.7,0,34.1,0c0,10.5,0,21,0,31.5c13.6,0,27.1,0,40.7,0c6.1,2.2,12.2,4.4,18.4,6.6
	c5.2,7.9,10.5,15.7,15.7,23.6c28,0.4,56,0.9,84,1.3c7.4-12.2,14.9-24.5,22.3-36.7c16.2-11.8,32.4-23.6,48.6-35.4c0,7,0,14,0,21
	c-4.8,18.8-9.6,37.6-14.4,56.4C562.2,648.6,552.2,660.4,542.1,672.2z"/>
<rect x="433.9" y="511.5" transform="matrix(-1 -1.845292e-11 1.845292e-11 -1 933.0201 1034.0758)" class="st2" width="65.3" height="11.1"/>
<rect x="337.9" y="497.3" transform="matrix(-1 -4.932822e-11 4.932822e-11 -1 742.4099 1006.4736)" class="st2" width="66.6" height="11.9"/>
<rect x="583.7" y="541.2" transform="matrix(-1 -4.929624e-11 4.929624e-11 -1 1183.6906 1116.7178)" class="st4" width="16.3" height="34.3"/>
<rect x="256" y="192" transform="matrix(-1 -3.631019e-11 3.631019e-11 -1 826.1484 457.9236)" class="st5" width="314.1" height="73.9"/>
<rect x="286.8" y="175.9" transform="matrix(-1 -3.629864e-11 3.629864e-11 -1 877.7533 367.8541)" class="st6" width="304.2" height="16.1"/>
<rect x="561" y="192" transform="matrix(-1 -3.631507e-11 3.631507e-11 -1 1158.4661 443.1361)" class="st7" width="36.6" height="59.2"/>
<rect x="321.7" y="157" transform="matrix(-1 -3.631640e-11 3.631640e-11 -1 902.6839 332.9018)" class="st8" width="259.3" height="18.8"/>
<rect x="210.9" y="227.3" transform="matrix(-1 -3.993884e-11 3.993884e-11 -1 536.5425 479.7579)" class="st5" width="114.7" height="25.1"/>
<rect x="541.5" y="250.2" transform="matrix(-1 -4.926205e-11 4.926205e-11 -1 1118.2661 527.2234)" class="st9" width="35.3" height="26.9"/>
<rect x="194.6" y="247.3" transform="matrix(-1 -4.930113e-11 4.930113e-11 -1 515.2548 553.4597)" class="st10" width="126" height="58.9"/>
<rect x="207.5" y="282.3" transform="matrix(-1 -5.873003e-11 5.873003e-11 -1 513.3345 722.8262)" class="st11" width="98.4" height="158.2"/>
<rect x="314.5" y="250.2" transform="matrix(-1 -4.924562e-11 4.924562e-11 -1 658.8846 533.1923)" class="st9" width="29.9" height="32.8"/>
<rect x="194.3" y="294.3" transform="matrix(-1 -7.994329e-11 7.994329e-11 -1 414.0395 625.8322)" class="st6" width="25.4" height="37.3"/>
<rect x="227.5" y="474.8" transform="matrix(-1 -4.929624e-11 4.929624e-11 -1 495.7906 994.4097)" class="st2" width="40.8" height="44.8"/>
<polygon class="st12" points="227.5,474.1 227.5,487.5 258.3,487.5 258.3,513.2 268.3,513.2 268.3,474.1 "/>
<rect x="397.7" y="558" class="st3" width="23.6" height="60.4"/>
<rect x="423.3" y="524.6" transform="matrix(-1.836970e-16 1 -1 -1.836970e-16 981.37 113.6916)" class="st13" width="21" height="45.9"/>
<rect x="468" y="528.5" transform="matrix(-1.836970e-16 1 -1 -1.836970e-16 1024.6787 78.2571)" class="st13" width="10.5" height="45.9"/>
<rect x="465.1" y="596.5" transform="matrix(-1.836970e-16 1 -1 -1.836970e-16 1084.8297 138.8456)" class="st4" width="15.7" height="30.6"/>
<rect x="506" y="524.6" transform="matrix(-1.836970e-16 1 -1 -1.836970e-16 1064.0503 31.0113)" class="st13" width="21" height="45.9"/>
<rect x="525" y="556.7" class="st3" width="23.6" height="61.7"/>
<path class="st14" d="M586.7,575.1c-4.8,20.6-9.6,41.1-14.4,61.7c-10.1,11.8-20.1,23.6-30.2,35.4c-55.6-1.3-111.1-2.6-166.7-3.9
	c-3.9-6.6-7.9-13.1-11.8-19.7c57.7,0,115.5,0,173.2,0c3.9-21.9,7.9-43.7,11.8-65.6c11.8-7,23.6-14,35.4-21c0-7,0-14,0-21
	c5.2,0,10.5,0,15.7,0c0,11.4,0,22.7,0,34.1C595.5,575.1,591.1,575.1,586.7,575.1z"/>
<rect x="350.3" y="668.3" transform="matrix(-1 -4.290935e-11 4.290935e-11 -1 881.0115 1485.2687)" class="st15" width="180.3" height="148.6"/>
<rect x="438.5" y="667.5" transform="matrix(-1 -3.797064e-11 3.797064e-11 -1 921.9269 1350.6406)" class="st2" width="44.8" height="15.6"/>
<rect x="321.9" y="668.3" transform="matrix(-1 -3.797730e-11 3.797730e-11 -1 675.9462 1373.9866)" class="st16" width="32.2" height="37.4"/>
<rect x="298.9" y="687" transform="matrix(-1 -3.797730e-11 3.797730e-11 -1 620.769 1392.6632)" class="st16" width="23" height="18.7"/>
<rect x="530.7" y="676.1" transform="matrix(-1 -3.789647e-11 3.789647e-11 -1 1089.088 1375.543)" class="st17" width="27.7" height="23.3"/>
<rect x="530.7" y="744.6" transform="matrix(-1 -3.799462e-11 3.799462e-11 -1 1099.3093 1551.4155)" class="st18" width="38" height="62.3"/>
<rect x="490.7" y="817" transform="matrix(-1 -3.280099e-11 3.280099e-11 -1 1021.4166 1745.1869)" class="st19" width="39.9" height="111.3"/>
<rect x="354" y="817" transform="matrix(-1 -3.287027e-11 3.287027e-11 -1 772.2278 1745.1869)" class="st20" width="64.2" height="111.3"/>
<rect x="469.3" y="923.6" transform="matrix(-1 -3.796842e-11 3.796842e-11 -1 1042.3621 1865.0292)" class="st18" width="103.7" height="17.9"/>
<rect x="323.3" y="926.3" transform="matrix(-1 -3.798662e-11 3.798662e-11 -1 756.1656 1867.714)" class="st18" width="109.5" height="15.2"/>
<rect x="469.3" y="942.2" transform="matrix(-1 -3.795065e-11 3.795065e-11 -1 1042.3621 1902.3827)" class="st21" width="103.7" height="17.9"/>
<rect x="323.3" y="941.8" transform="matrix(-1 -3.796975e-11 3.796975e-11 -1 756.1656 1898.8419)" class="st21" width="109.5" height="15.2"/>
<rect x="416.8" y="817" transform="matrix(-1 -3.367097e-11 3.367097e-11 -1 908.7552 1683.709)" class="st22" width="75.2" height="49.8"/>
<rect x="530.7" y="806.8" transform="matrix(-1 -3.803903e-11 3.803903e-11 -1 1102.2296 1657.2505)" class="st23" width="40.9" height="43.6"/>
<rect x="532.9" y="922.8" transform="matrix(-1 -3.799462e-11 3.799462e-11 -1 1083.2472 1864.251)" class="st21" width="17.5" height="18.7"/>
<rect x="398.5" y="924.3" transform="matrix(-1 -3.789070e-11 3.789070e-11 -1 814.5731 1867.3638)" class="st21" width="17.5" height="18.7"/>
<rect x="347.4" y="924.3" transform="matrix(-1 -3.799462e-11 3.799462e-11 -1 712.3601 1867.3638)" class="st24" width="17.5" height="18.7"/>
<rect x="473" y="922.8" transform="matrix(-1 -3.809853e-11 3.809853e-11 -1 963.512 1864.251)" class="st24" width="17.5" height="18.7"/>
<rect x="326.6" y="814.6" transform="matrix(-1 -3.794355e-11 3.794355e-11 -1 681.2994 1695.3822)" class="st25" width="28.1" height="66.1"/>
<rect x="294.3" y="813.1" transform="matrix(-1 -3.794488e-11 3.794488e-11 -1 644.9091 1669.7017)" class="st23" width="56.3" height="43.6"/>
<rect x="298.9" y="757" transform="matrix(-1 -3.794222e-11 3.794222e-11 -1 649.5071 1570.0923)" class="st18" width="51.7" height="56"/>
<rect x="298.6" y="756.3" transform="matrix(-1 -3.805235e-11 3.805235e-11 -1 615.2776 1568.5359)" class="st2" width="18.1" height="56"/>
<rect x="370.6" y="703.3" transform="matrix(-1 -3.775792e-11 3.775792e-11 -1 750.4576 1484.4906)" class="st26" width="9.2" height="77.8"/>
<rect x="550.4" y="806.1" transform="matrix(-1 -3.795199e-11 3.795199e-11 -1 1119.006 1654.1377)" class="st27" width="18.1" height="42"/>
<rect x="292" y="705.7" transform="matrix(-1 -7.880908e-11 7.880908e-11 -1 642.61 1517.9529)" class="st28" width="58.6" height="106.6"/>
<rect x="530.7" y="697.9" transform="matrix(-1 -8.807279e-11 8.807279e-11 -1 1105.15 1503.9454)" class="st29" width="43.8" height="108.2"/>
<rect x="291.2" y="824.7" class="st30" width="15.6" height="15.6"/>
<rect x="302.1" y="817" class="st30" width="15.6" height="15.6"/>
<rect x="314.6" y="812.3" class="st31" width="35.8" height="14"/>
</svg>
